<svg width="42" height="26" viewBox="0 0 42 26" fill="none" xmlns="http://www.w3.org/2000/svg">
<g id="Flag_of_Canada_(Pantone) 1" clip-path="url(#clip0_349_11836)">
<path id="Vector" d="M-5.25 0H7.875L8.41641 0.53625H33.5836L34.125 0H47.25V26H34.125L33.5836 25.4637H8.41641L7.875 26H-5.25V0Z" fill="#D52B1E"/>
<path id="Vector_2" d="M7.875 0H34.125V26H7.875V0ZM21.4922 23.9958L21.2461 19.3212C21.2425 19.2444 21.2564 19.1677 21.2867 19.0968C21.317 19.026 21.363 18.9627 21.4212 18.9118C21.4795 18.8609 21.5485 18.8235 21.6233 18.8025C21.698 18.7815 21.7766 18.7774 21.8531 18.7904L26.5508 19.6083L25.9164 17.875C25.8907 17.806 25.8874 17.7308 25.907 17.6599C25.9266 17.589 25.9681 17.5259 26.0258 17.4796L31.1719 13.3521L30.0125 12.8158C29.9342 12.7792 29.8721 12.7155 29.8379 12.6367C29.8036 12.5579 29.7996 12.4694 29.8266 12.3879L30.8438 9.28958L27.8797 9.9125C27.7994 9.92908 27.7158 9.91765 27.643 9.88013C27.5702 9.84262 27.5128 9.78133 27.4805 9.70667L26.9062 8.36875L24.593 10.8279C24.5401 10.8832 24.4705 10.92 24.3947 10.9328C24.3189 10.9456 24.241 10.9337 24.1726 10.8989C24.1042 10.8641 24.0491 10.8083 24.0154 10.7398C23.9818 10.6714 23.9714 10.5939 23.9859 10.5192L25.1016 4.82083L23.3133 5.84458C23.2713 5.86896 23.2247 5.88453 23.1764 5.89034C23.1281 5.89615 23.0791 5.89208 23.0324 5.87837C22.9858 5.86465 22.9425 5.8416 22.9052 5.81063C22.8679 5.77967 22.8374 5.74144 22.8156 5.69833L21 2.16667L19.1844 5.69833C19.1626 5.74144 19.1321 5.77967 19.0948 5.81063C19.0575 5.8416 19.0142 5.86465 18.9676 5.87837C18.9209 5.89208 18.8719 5.89615 18.8236 5.89034C18.7753 5.88453 18.7287 5.86896 18.6867 5.84458L16.8984 4.82083L18.0141 10.5192C18.0286 10.5939 18.0182 10.6714 17.9846 10.7398C17.9509 10.8083 17.8958 10.8641 17.8274 10.8989C17.759 10.9337 17.6811 10.9456 17.6053 10.9328C17.5295 10.92 17.4599 10.8832 17.407 10.8279L15.0938 8.36875L14.5195 9.70667C14.4872 9.78133 14.4298 9.84262 14.357 9.88013C14.2842 9.91765 14.2006 9.92908 14.1203 9.9125L11.1562 9.28958L12.1734 12.3879C12.2004 12.4694 12.1964 12.5579 12.1621 12.6367C12.1279 12.7155 12.0658 12.7792 11.9875 12.8158L10.8281 13.3521L15.9742 17.4796C16.0319 17.5259 16.0734 17.589 16.093 17.6599C16.1126 17.7308 16.1093 17.806 16.0836 17.875L15.4492 19.6083L20.1469 18.7904C20.2234 18.7774 20.302 18.7815 20.3767 18.8025C20.4515 18.8235 20.5205 18.8609 20.5788 18.9118C20.637 18.9627 20.683 19.026 20.7133 19.0968C20.7436 19.1677 20.7575 19.2444 20.7539 19.3212L20.5078 23.9958H21.4922Z" fill="white"/>
</g>
<defs>
<clipPath id="clip0_349_11836">
<rect width="42" height="26" fill="white"/>
</clipPath>
</defs>
</svg>
