<svg width="24" height="24" viewBox="0 0 24 24" fill="none" xmlns="http://www.w3.org/2000/svg">
<g id="whatsapp-logo 1">
<path id="Vector" d="M17.5838 13.5787L14.5838 12.0787C14.4658 12.0199 14.3342 11.9933 14.2026 12.0015C14.0709 12.0097 13.9437 12.0525 13.8338 12.1256L12.4567 13.0444C11.8245 12.6968 11.3042 12.1766 10.9567 11.5444L11.8754 10.1672C11.9485 10.0573 11.9913 9.93016 11.9996 9.79848C12.0078 9.6668 11.9811 9.53528 11.9223 9.41719L10.4223 6.41719C10.3601 6.29163 10.264 6.186 10.1449 6.11226C10.0257 6.03853 9.88833 5.99964 9.74822 6C8.75366 6 7.79983 6.39509 7.09657 7.09835C6.39331 7.80161 5.99822 8.75544 5.99822 9.75C6.0007 11.9373 6.87069 14.0343 8.41733 15.5809C9.96397 17.1275 12.0609 17.9975 14.2482 18C14.7407 18 15.2283 17.903 15.6833 17.7145C16.1383 17.5261 16.5517 17.2499 16.8999 16.9017C17.2481 16.5534 17.5243 16.14 17.7128 15.6851C17.9012 15.2301 17.9982 14.7425 17.9982 14.25C17.9983 14.1107 17.9596 13.9741 17.8864 13.8555C17.8132 13.7369 17.7085 13.6411 17.5838 13.5787ZM14.2482 16.5C12.4586 16.498 10.7429 15.7862 9.47744 14.5208C8.212 13.2553 7.50021 11.5396 7.49822 9.75C7.49808 9.2298 7.67819 8.72562 8.00791 8.32326C8.33762 7.9209 8.79657 7.64521 9.30666 7.54313L10.3829 9.69938L9.46697 11.0625C9.39853 11.1652 9.35647 11.2831 9.34453 11.406C9.3326 11.5288 9.35114 11.6526 9.39853 11.7666C9.93514 13.0419 10.9497 14.0565 12.2251 14.5931C12.3394 14.6426 12.4642 14.6629 12.5882 14.6521C12.7123 14.6413 12.8317 14.5998 12.9357 14.5312L14.3054 13.6181L16.4617 14.6944C16.3588 15.205 16.0819 15.6642 15.6782 15.9935C15.2746 16.3228 14.7692 16.5018 14.2482 16.5ZM11.9982 2.25C10.3149 2.24963 8.66018 2.68508 7.19508 3.51396C5.72999 4.34285 4.50445 5.53692 3.63776 6.97997C2.77106 8.42301 2.29274 10.0659 2.24934 11.7486C2.20594 13.4314 2.59894 15.0967 3.3901 16.5825L2.32603 19.7747C2.2379 20.039 2.2251 20.3226 2.28909 20.5938C2.35309 20.8649 2.49133 21.1129 2.68833 21.3099C2.88534 21.5069 3.13331 21.6451 3.40447 21.7091C3.67562 21.7731 3.95924 21.7603 4.22353 21.6722L7.41572 20.6081C8.72332 21.3036 10.1722 21.6921 11.6523 21.744C13.1324 21.7959 14.605 21.51 15.9581 20.9079C17.3112 20.3057 18.5094 19.4033 19.4617 18.269C20.4139 17.1346 21.0953 15.7983 21.454 14.3613C21.8127 12.9244 21.8393 11.4246 21.5318 9.97578C21.2243 8.52701 20.5908 7.16732 19.6794 5.99992C18.7679 4.83253 17.6025 3.88811 16.2716 3.23836C14.9407 2.58861 13.4793 2.25061 11.9982 2.25ZM11.9982 20.25C10.5479 20.251 9.123 19.8691 7.8676 19.1428C7.77568 19.0895 7.67349 19.0563 7.56778 19.0455C7.46208 19.0347 7.35529 19.0464 7.25447 19.08L3.74822 20.25L4.91728 16.7438C4.95098 16.643 4.96289 16.5362 4.95223 16.4305C4.94156 16.3248 4.90856 16.2226 4.85541 16.1306C3.94601 14.5584 3.58089 12.7299 3.81669 10.929C4.05249 9.12801 4.87603 7.4552 6.15955 6.17006C7.44308 4.88491 9.11484 4.05925 10.9155 3.82118C12.7162 3.5831 14.5451 3.94591 16.1185 4.85333C17.6919 5.76074 18.9219 7.16204 19.6176 8.83983C20.3134 10.5176 20.436 12.3781 19.9664 14.1327C19.4969 15.8873 18.4615 17.4379 17.0207 18.5439C15.58 19.65 13.8145 20.2497 11.9982 20.25Z" fill="white"/>
</g>
</svg>
