<svg width="32" height="32" viewBox="0 0 32 32" fill="none" xmlns="http://www.w3.org/2000/svg">
<g id="Frame">
<path id="Vector" opacity="0.2" d="M28 14V16C28 19.1826 26.7357 22.2348 24.4853 24.4853C22.2348 26.7357 19.1826 28 16 28C12.8174 28 9.76515 26.7357 7.51472 24.4853C5.26428 22.2348 4 19.1826 4 16V11C4 10.2044 4.31607 9.44129 4.87868 8.87868C5.44129 8.31607 6.20435 8 7 8C7.79565 8 8.55871 8.31607 9.12132 8.87868C9.68393 9.44129 10 10.2044 10 11V8C10 7.20435 10.3161 6.44129 10.8787 5.87868C11.4413 5.31607 12.2044 5 13 5C13.7956 5 14.5587 5.31607 15.1213 5.87868C15.6839 6.44129 16 7.20435 16 8C16 7.20435 16.3161 6.44129 16.8787 5.87868C17.4413 5.31607 18.2044 5 19 5C19.7956 5 20.5587 5.31607 21.1213 5.87868C21.6839 6.44129 22 7.20435 22 8V11H25C25.7956 11 26.5587 11.3161 27.1213 11.8787C27.6839 12.4413 28 13.2044 28 14Z" fill="white"/>
<path id="Vector_2" d="M25 9.99941H23V7.99941C22.9991 7.18731 22.751 6.39472 22.2887 5.72702C21.8265 5.05932 21.1719 4.54815 20.4121 4.26145C19.6523 3.97476 18.8232 3.92613 18.0351 4.12203C17.247 4.31793 16.5372 4.74908 16 5.35816C15.4881 4.77793 14.8188 4.35864 14.0734 4.15111C13.328 3.94357 12.5384 3.95669 11.8003 4.18888C11.0621 4.42107 10.4072 4.86237 9.91484 5.45928C9.42248 6.05619 9.11381 6.7831 9.02625 7.55191C8.41873 7.19498 7.72771 7.00486 7.02311 7.00079C6.31851 6.99672 5.62534 7.17884 5.01374 7.52872C4.40214 7.87861 3.89381 8.38384 3.5402 8.9933C3.18658 9.60275 3.00023 10.2948 3 10.9994V15.9994C3 19.4472 4.36964 22.7538 6.80761 25.1918C9.24558 27.6298 12.5522 28.9994 16 28.9994C19.4478 28.9994 22.7544 27.6298 25.1924 25.1918C27.6304 22.7538 29 19.4472 29 15.9994V13.9994C29 12.9385 28.5786 11.9211 27.8284 11.171C27.0783 10.4208 26.0609 9.99941 25 9.99941ZM19 5.99941C19.5304 5.99941 20.0391 6.21012 20.4142 6.58519C20.7893 6.96027 21 7.46898 21 7.99941V9.99941H17V7.99941C17 7.46898 17.2107 6.96027 17.5858 6.58519C17.9609 6.21012 18.4696 5.99941 19 5.99941ZM11 7.99941C11 7.46898 11.2107 6.96027 11.5858 6.58519C11.9609 6.21012 12.4696 5.99941 13 5.99941C13.5304 5.99941 14.0391 6.21012 14.4142 6.58519C14.7893 6.96027 15 7.46898 15 7.99941V12.9994C15 13.5298 14.7893 14.0385 14.4142 14.4136C14.0391 14.7887 13.5304 14.9994 13 14.9994C12.4696 14.9994 11.9609 14.7887 11.5858 14.4136C11.2107 14.0385 11 13.5298 11 12.9994V7.99941ZM5 10.9994C5 10.469 5.21071 9.96027 5.58579 9.5852C5.96086 9.21012 6.46957 8.99941 7 8.99941C7.53043 8.99941 8.03914 9.21012 8.41421 9.5852C8.78929 9.96027 9 10.469 9 10.9994V12.9994C9 13.5298 8.78929 14.0385 8.41421 14.4136C8.03914 14.7887 7.53043 14.9994 7 14.9994C6.46957 14.9994 5.96086 14.7887 5.58579 14.4136C5.21071 14.0385 5 13.5298 5 12.9994V10.9994ZM27 15.9994C27 18.8762 25.8729 21.6384 23.8606 23.6941C21.8482 25.7498 19.1105 26.9354 16.2344 26.9967C13.3583 27.058 10.5727 25.9902 8.47449 24.0221C6.37633 22.054 5.13264 19.3423 5.01 16.4682C5.80932 16.9279 6.74315 17.0966 7.65282 16.9458C8.56248 16.7949 9.39186 16.3338 10 15.6407C10.6892 16.426 11.6588 16.9097 12.7007 16.988C13.7426 17.0663 14.7737 16.7329 15.5725 16.0594C15.9322 16.6556 16.4405 17.1483 17.0475 17.4894C16.4041 18.0515 15.8885 18.7448 15.5353 19.5227C15.1822 20.3006 14.9996 21.1451 15 21.9994C15 22.2646 15.1054 22.519 15.2929 22.7065C15.4804 22.8941 15.7348 22.9994 16 22.9994C16.2652 22.9994 16.5196 22.8941 16.7071 22.7065C16.8946 22.519 17 22.2646 17 21.9994C17 20.9385 17.4214 19.9211 18.1716 19.171C18.9217 18.4208 19.9391 17.9994 21 17.9994C21.2652 17.9994 21.5196 17.8941 21.7071 17.7065C21.8946 17.519 22 17.2646 22 16.9994C22 16.7342 21.8946 16.4798 21.7071 16.2923C21.5196 16.1048 21.2652 15.9994 21 15.9994H19C18.4696 15.9994 17.9609 15.7887 17.5858 15.4136C17.2107 15.0385 17 14.5298 17 13.9994V11.9994H25C25.5304 11.9994 26.0391 12.2101 26.4142 12.5852C26.7893 12.9603 27 13.469 27 13.9994V15.9994Z" fill="white"/>
</g>
</svg>
