<svg width="32" height="32" viewBox="0 0 32 32" fill="none" xmlns="http://www.w3.org/2000/svg">
<g id="Frame">
<path id="Vector" opacity="0.2" d="M29 7V15L21 7H29Z" fill="white"/>
<path id="Vector_2" d="M29.0001 6H21.0001C20.8022 5.99984 20.6087 6.05841 20.4441 6.16828C20.2795 6.27815 20.1512 6.43439 20.0754 6.61721C19.9997 6.80003 19.9799 7.00122 20.0185 7.19531C20.0572 7.38939 20.1526 7.56764 20.2926 7.7075L23.5863 11L17.0001 17.5863L12.7076 13.2925C12.6147 13.1995 12.5044 13.1258 12.383 13.0754C12.2616 13.0251 12.1315 12.9992 12.0001 12.9992C11.8687 12.9992 11.7385 13.0251 11.6171 13.0754C11.4957 13.1258 11.3854 13.1995 11.2926 13.2925L2.29257 22.2925C2.10493 22.4801 1.99951 22.7346 1.99951 23C1.99951 23.2654 2.10493 23.5199 2.29257 23.7075C2.48021 23.8951 2.7347 24.0006 3.00007 24.0006C3.26543 24.0006 3.51993 23.8951 3.70757 23.7075L12.0001 15.4137L16.2926 19.7075C16.3854 19.8005 16.4957 19.8742 16.6171 19.9246C16.7385 19.9749 16.8687 20.0008 17.0001 20.0008C17.1315 20.0008 17.2616 19.9749 17.383 19.9246C17.5044 19.8742 17.6147 19.8005 17.7076 19.7075L25.0001 12.4138L28.2926 15.7075C28.4324 15.8475 28.6107 15.9429 28.8048 15.9815C28.9988 16.0202 29.2 16.0004 29.3829 15.9246C29.5657 15.8489 29.7219 15.7206 29.8318 15.556C29.9417 15.3914 30.0002 15.1979 30.0001 15V7C30.0001 6.73478 29.8947 6.48043 29.7072 6.29289C29.5196 6.10536 29.2653 6 29.0001 6ZM28.0001 12.5863L23.4138 8H28.0001V12.5863Z" fill="white"/>
</g>
</svg>
