<svg width="32" height="32" viewBox="0 0 32 32" fill="none" xmlns="http://www.w3.org/2000/svg">
<g id="Frame">
<path id="Vector" opacity="0.2" d="M11.975 7.02525C12.4644 7.51475 12.7978 8.13839 12.9328 8.81732C13.0678 9.49624 12.9985 10.2 12.7335 10.8395C12.4686 11.479 12.02 12.0256 11.4445 12.4102C10.8689 12.7947 10.1922 13 9.5 13C8.80778 13 8.13111 12.7947 7.55554 12.4102C6.97998 12.0256 6.53137 11.479 6.26646 10.8395C6.00154 10.2 5.93221 9.49624 6.06723 8.81732C6.20225 8.13839 6.53555 7.51475 7.025 7.02525C7.35001 6.70021 7.73586 6.44237 8.16053 6.26646C8.58519 6.09054 9.04035 6 9.5 6C9.95966 6 10.4148 6.09054 10.8395 6.26646C11.2641 6.44237 11.65 6.70021 11.975 7.02525ZM24.975 20.0253C24.4855 19.5358 23.8619 19.2025 23.1829 19.0675C22.504 18.9325 21.8003 19.0018 21.1608 19.2667C20.5213 19.5316 19.9747 19.9802 19.5901 20.5558C19.2055 21.1314 19.0003 21.808 19.0003 22.5003C19.0003 23.1925 19.2055 23.8691 19.5901 24.4447C19.9747 25.0203 20.5213 25.4689 21.1608 25.7338C21.8003 25.9987 22.504 26.068 23.1829 25.933C23.8619 25.798 24.4855 25.4647 24.975 24.9753C25.3 24.6502 25.5579 24.2644 25.7338 23.8397C25.9097 23.4151 26.0003 22.9599 26.0003 22.5003C26.0003 22.0406 25.9097 21.5854 25.7338 21.1608C25.5579 20.7361 25.3 20.3503 24.975 20.0253Z" fill="white"/>
<path id="Vector_2" d="M25.7073 7.70497L7.7073 25.705C7.51966 25.8926 7.26517 25.998 6.9998 25.998C6.73444 25.998 6.47995 25.8926 6.2923 25.705C6.10466 25.5173 5.99925 25.2628 5.99925 24.9975C5.99925 24.7321 6.10466 24.4776 6.2923 24.29L24.2923 6.28997C24.4798 6.10233 24.7341 5.99685 24.9994 5.99673C25.2646 5.99661 25.519 6.10187 25.7067 6.28935C25.8943 6.47682 25.9998 6.73116 25.9999 6.9964C26 7.26165 25.8948 7.51608 25.7073 7.70372V7.70497ZM6.3173 12.68C5.47342 11.8359 4.99939 10.6912 4.99951 9.49765C4.99963 8.3041 5.47388 7.15948 6.31793 6.3156C7.16198 5.47171 8.30669 4.99769 9.50025 4.9978C10.6938 4.99792 11.8384 5.47217 12.6823 6.31622C13.5262 7.16027 14.0002 8.30499 14.0001 9.49854C14 10.6921 13.5257 11.8367 12.6817 12.6806C11.8376 13.5245 10.6929 13.9985 9.49936 13.9984C8.30581 13.9983 7.16119 13.524 6.3173 12.68ZM6.9998 9.49997C7.00013 9.91103 7.10181 10.3157 7.29583 10.6781C7.48986 11.0404 7.77026 11.3494 8.11218 11.5775C8.45411 11.8057 8.84702 11.946 9.25612 11.9861C9.66523 12.0262 10.0779 11.9647 10.4576 11.8073C10.8373 11.6498 11.1723 11.4011 11.4329 11.0832C11.6936 10.7654 11.8718 10.3882 11.9519 9.98497C12.032 9.58178 12.0114 9.16507 11.892 8.77174C11.7726 8.37841 11.558 8.02059 11.2673 7.72997C10.9175 7.3803 10.4719 7.14223 9.98677 7.04589C9.50166 6.94955 8.99886 6.99927 8.54201 7.18875C8.08516 7.37824 7.69478 7.69898 7.42026 8.11038C7.14574 8.52179 6.99942 9.00538 6.9998 9.49997ZM26.9998 22.5C26.9996 23.5411 26.6384 24.5499 25.9777 25.3545C25.3171 26.1591 24.3979 26.7098 23.3768 26.9127C22.3556 27.1155 21.2958 26.9581 20.3777 26.4671C19.4596 25.9762 18.7402 25.1821 18.342 24.2202C17.9438 23.2583 17.8914 22.188 18.1938 21.1918C18.4962 20.1956 19.1347 19.3351 20.0004 18.7569C20.8661 18.1786 21.9056 17.9185 22.9417 18.0207C23.9777 18.1229 24.9463 18.5812 25.6823 19.3175C26.1015 19.7344 26.4338 20.2304 26.6599 20.7767C26.8861 21.323 27.0016 21.9087 26.9998 22.5ZM24.9998 22.5C24.9999 21.9216 24.7995 21.361 24.4327 20.9139C24.0658 20.4667 23.5553 20.1605 22.988 20.0476C22.4208 19.9346 21.8319 20.0219 21.3217 20.2944C20.8116 20.567 20.4117 21.008 20.1903 21.5423C19.9688 22.0766 19.9395 22.6712 20.1073 23.2247C20.2751 23.7782 20.6297 24.2565 21.1105 24.5779C21.5914 24.8993 22.1688 25.044 22.7445 24.9874C23.3201 24.9308 23.8583 24.6764 24.2673 24.2675C24.5002 24.0359 24.6848 23.7605 24.8106 23.4571C24.9363 23.1537 25.0006 22.8284 24.9998 22.5Z" fill="white"/>
</g>
</svg>
