<svg width="32" height="32" viewBox="0 0 32 32" fill="none" xmlns="http://www.w3.org/2000/svg">
<g id="Frame">
<path id="Vector" opacity="0.2" d="M27 17C27 19.1756 26.3549 21.3023 25.1462 23.1113C23.9375 24.9202 22.2195 26.3301 20.2095 27.1627C18.1995 27.9952 15.9878 28.2131 13.854 27.7886C11.7202 27.3642 9.76021 26.3166 8.22183 24.7782C6.68345 23.2398 5.6358 21.2798 5.21137 19.146C4.78693 17.0122 5.00477 14.8005 5.83733 12.7905C6.66989 10.7805 8.07979 9.06253 9.88873 7.85383C11.6977 6.64514 13.8244 6 16 6C18.9174 6 21.7153 7.15893 23.7782 9.22183C25.8411 11.2847 27 14.0826 27 17Z" fill="#FD532E"/>
<path id="Vector_2" d="M16.0001 5.00056C13.6267 5.00056 11.3066 5.70434 9.33323 7.02292C7.35984 8.3415 5.82176 10.2156 4.91351 12.4084C4.00526 14.6011 3.76762 17.0139 4.23064 19.3416C4.69367 21.6694 5.83656 23.8076 7.51479 25.4858C9.19302 27.1641 11.3312 28.307 13.659 28.77C15.9868 29.233 18.3996 28.9954 20.5923 28.0871C22.785 27.1789 24.6591 25.6408 25.9777 23.6674C27.2963 21.694 28.0001 19.3739 28.0001 17.0006C27.9964 13.8191 26.731 10.7689 24.4813 8.51929C22.2317 6.26965 19.1815 5.0042 16.0001 5.00056ZM16.0001 27.0006C14.0223 27.0006 12.0889 26.4141 10.4444 25.3153C8.79987 24.2164 7.51815 22.6546 6.76127 20.8274C6.0044 19.0001 5.80636 16.9895 6.19221 15.0497C6.57807 13.1098 7.53047 11.328 8.929 9.92949C10.3275 8.53096 12.1094 7.57856 14.0492 7.1927C15.989 6.80685 17.9996 7.00488 19.8269 7.76176C21.6542 8.51864 23.216 9.80036 24.3148 11.4449C25.4136 13.0893 26.0001 15.0227 26.0001 17.0006C25.9971 19.6518 24.9426 22.1936 23.0678 24.0683C21.1931 25.9431 18.6513 26.9976 16.0001 27.0006ZM7.70757 4.70806L3.70757 8.70806C3.51993 8.8957 3.26543 9.00111 3.00007 9.00111C2.7347 9.00111 2.48021 8.8957 2.29257 8.70806C2.10493 8.52042 1.99951 8.26592 1.99951 8.00056C1.99951 7.73519 2.10493 7.4807 2.29257 7.29306L6.29257 3.29306C6.48021 3.10542 6.7347 3 7.00007 3C7.26543 3 7.51993 3.10542 7.70757 3.29306C7.89521 3.4807 8.00062 3.73519 8.00062 4.00056C8.00062 4.26592 7.89521 4.52042 7.70757 4.70806ZM29.7076 8.70806C29.6147 8.80103 29.5044 8.87479 29.383 8.92512C29.2616 8.97544 29.1315 9.00134 29.0001 9.00134C28.8687 9.00134 28.7385 8.97544 28.6171 8.92512C28.4957 8.87479 28.3854 8.80103 28.2926 8.70806L24.2926 4.70806C24.1049 4.52042 23.9995 4.26592 23.9995 4.00056C23.9995 3.73519 24.1049 3.4807 24.2926 3.29306C24.4802 3.10542 24.7347 3 25.0001 3C25.2654 3 25.5199 3.10542 25.7076 3.29306L29.7076 7.29306C29.8005 7.38593 29.8743 7.49622 29.9246 7.61762C29.975 7.73901 30.0009 7.86914 30.0009 8.00056C30.0009 8.13197 29.975 8.2621 29.9246 8.3835C29.8743 8.50489 29.8005 8.61518 29.7076 8.70806ZM23.0001 16.0006C23.2653 16.0006 23.5196 16.1059 23.7072 16.2934C23.8947 16.481 24.0001 16.7353 24.0001 17.0006C24.0001 17.2658 23.8947 17.5201 23.7072 17.7077C23.5196 17.8952 23.2653 18.0006 23.0001 18.0006H16.0001C15.7349 18.0006 15.4805 17.8952 15.293 17.7077C15.1054 17.5201 15.0001 17.2658 15.0001 17.0006V10.0006C15.0001 9.73534 15.1054 9.48099 15.293 9.29345C15.4805 9.10591 15.7349 9.00056 16.0001 9.00056C16.2653 9.00056 16.5196 9.10591 16.7072 9.29345C16.8947 9.48099 17.0001 9.73534 17.0001 10.0006V16.0006H23.0001Z" fill="#FD532E"/>
</g>
</svg>
