<svg width="32" height="32" viewBox="0 0 32 32" fill="none" xmlns="http://www.w3.org/2000/svg">
<g id="Frame">
<path id="Vector" opacity="0.2" d="M21 25.9992H7.5C8.69347 25.9992 9.83807 25.5251 10.682 24.6811C11.5259 23.8372 12 22.6926 12 21.4992V10.4992C11.9998 9.45602 12.2962 8.43433 12.8547 7.5533C13.4132 6.67227 14.2108 5.96824 15.1543 5.52335C16.0978 5.07846 17.1484 4.91106 18.1834 5.04068C19.2185 5.1703 20.1953 5.59159 21 6.25541V25.9992Z" fill="#FD532E"/>
<path id="Vector_2" d="M24 26.0001C24 26.2653 23.8946 26.5197 23.7071 26.7072C23.5196 26.8947 23.2652 27.0001 23 27.0001H7C6.73478 27.0001 6.48043 26.8947 6.29289 26.7072C6.10536 26.5197 6 26.2653 6 26.0001C6 25.7349 6.10536 25.4805 6.29289 25.293C6.48043 25.1054 6.73478 25.0001 7 25.0001H7.5C8.42826 25.0001 9.3185 24.6313 9.97487 23.975C10.6313 23.3186 11 22.4284 11 21.5001V17.0001H7C6.73478 17.0001 6.48043 16.8947 6.29289 16.7072C6.10536 16.5197 6 16.2653 6 16.0001C6 15.7349 6.10536 15.4805 6.29289 15.293C6.48043 15.1055 6.73478 15.0001 7 15.0001H11V10.5001C11 9.26757 11.3505 8.06045 12.0105 7.01954C12.6705 5.97862 13.6129 5.14681 14.7277 4.62112C15.8425 4.09543 17.0837 3.89753 18.3067 4.05051C19.5297 4.20348 20.684 4.70102 21.635 5.48509C21.7391 5.56772 21.8257 5.67027 21.8897 5.78675C21.9538 5.90324 21.9939 6.03132 22.0079 6.1635C22.0218 6.29568 22.0093 6.42932 21.9709 6.5566C21.9326 6.68388 21.8693 6.80224 21.7848 6.90477C21.7002 7.0073 21.596 7.09194 21.4783 7.15374C21.3607 7.21554 21.2318 7.25326 21.0994 7.2647C20.967 7.27613 20.8336 7.26106 20.7071 7.22034C20.5806 7.17963 20.4634 7.11411 20.3625 7.02759C19.7041 6.4848 18.9049 6.14039 18.0582 6.03454C17.2115 5.92869 16.3522 6.06576 15.5804 6.42976C14.8086 6.79376 14.1563 7.36969 13.6994 8.09038C13.2425 8.81106 12.9999 9.64679 13 10.5001V15.0001H17C17.2652 15.0001 17.5196 15.1055 17.7071 15.293C17.8946 15.4805 18 15.7349 18 16.0001C18 16.2653 17.8946 16.5197 17.7071 16.7072C17.5196 16.8947 17.2652 17.0001 17 17.0001H13V21.5001C13.0011 22.778 12.5554 24.0161 11.74 25.0001H23C23.2652 25.0001 23.5196 25.1054 23.7071 25.293C23.8946 25.4805 24 25.7349 24 26.0001Z" fill="#FD532E"/>
</g>
</svg>
