<svg width="32" height="32" viewBox="0 0 32 32" fill="none" xmlns="http://www.w3.org/2000/svg">
<g id="Frame">
<path id="Vector" opacity="0.2" d="M27 6V11H5V6C5 5.73478 5.10536 5.48043 5.29289 5.29289C5.48043 5.10536 5.73478 5 6 5H26C26.2652 5 26.5196 5.10536 26.7071 5.29289C26.8946 5.48043 27 5.73478 27 6Z" fill="white"/>
<path id="Vector_2" d="M26 4H23V3C23 2.73478 22.8946 2.48043 22.7071 2.29289C22.5196 2.10536 22.2652 2 22 2C21.7348 2 21.4804 2.10536 21.2929 2.29289C21.1054 2.48043 21 2.73478 21 3V4H11V3C11 2.73478 10.8946 2.48043 10.7071 2.29289C10.5196 2.10536 10.2652 2 10 2C9.73478 2 9.48043 2.10536 9.29289 2.29289C9.10536 2.48043 9 2.73478 9 3V4H6C5.46957 4 4.96086 4.21071 4.58579 4.58579C4.21071 4.96086 4 5.46957 4 6V26C4 26.5304 4.21071 27.0391 4.58579 27.4142C4.96086 27.7893 5.46957 28 6 28H26C26.5304 28 27.0391 27.7893 27.4142 27.4142C27.7893 27.0391 28 26.5304 28 26V6C28 5.46957 27.7893 4.96086 27.4142 4.58579C27.0391 4.21071 26.5304 4 26 4ZM9 6V7C9 7.26522 9.10536 7.51957 9.29289 7.70711C9.48043 7.89464 9.73478 8 10 8C10.2652 8 10.5196 7.89464 10.7071 7.70711C10.8946 7.51957 11 7.26522 11 7V6H21V7C21 7.26522 21.1054 7.51957 21.2929 7.70711C21.4804 7.89464 21.7348 8 22 8C22.2652 8 22.5196 7.89464 22.7071 7.70711C22.8946 7.51957 23 7.26522 23 7V6H26V10H6V6H9ZM26 26H6V12H26V26ZM17.5 16.5C17.5 16.7967 17.412 17.0867 17.2472 17.3334C17.0824 17.58 16.8481 17.7723 16.574 17.8858C16.2999 17.9993 15.9983 18.0291 15.7074 17.9712C15.4164 17.9133 15.1491 17.7704 14.9393 17.5607C14.7296 17.3509 14.5867 17.0836 14.5288 16.7926C14.4709 16.5017 14.5006 16.2001 14.6142 15.926C14.7277 15.6519 14.92 15.4176 15.1666 15.2528C15.4133 15.088 15.7033 15 16 15C16.3978 15 16.7794 15.158 17.0607 15.4393C17.342 15.7206 17.5 16.1022 17.5 16.5ZM23 16.5C23 16.7967 22.912 17.0867 22.7472 17.3334C22.5824 17.58 22.3481 17.7723 22.074 17.8858C21.7999 17.9993 21.4983 18.0291 21.2074 17.9712C20.9164 17.9133 20.6491 17.7704 20.4393 17.5607C20.2296 17.3509 20.0867 17.0836 20.0288 16.7926C19.9709 16.5017 20.0007 16.2001 20.1142 15.926C20.2277 15.6519 20.42 15.4176 20.6666 15.2528C20.9133 15.088 21.2033 15 21.5 15C21.8978 15 22.2794 15.158 22.5607 15.4393C22.842 15.7206 23 16.1022 23 16.5ZM12 21.5C12 21.7967 11.912 22.0867 11.7472 22.3334C11.5824 22.58 11.3481 22.7723 11.074 22.8858C10.7999 22.9993 10.4983 23.0291 10.2074 22.9712C9.91639 22.9133 9.64912 22.7704 9.43934 22.5607C9.22956 22.3509 9.0867 22.0836 9.02882 21.7926C8.97094 21.5017 9.00065 21.2001 9.11418 20.926C9.22771 20.6519 9.41997 20.4176 9.66665 20.2528C9.91332 20.088 10.2033 20 10.5 20C10.8978 20 11.2794 20.158 11.5607 20.4393C11.842 20.7206 12 21.1022 12 21.5ZM17.5 21.5C17.5 21.7967 17.412 22.0867 17.2472 22.3334C17.0824 22.58 16.8481 22.7723 16.574 22.8858C16.2999 22.9993 15.9983 23.0291 15.7074 22.9712C15.4164 22.9133 15.1491 22.7704 14.9393 22.5607C14.7296 22.3509 14.5867 22.0836 14.5288 21.7926C14.4709 21.5017 14.5006 21.2001 14.6142 20.926C14.7277 20.6519 14.92 20.4176 15.1666 20.2528C15.4133 20.088 15.7033 20 16 20C16.3978 20 16.7794 20.158 17.0607 20.4393C17.342 20.7206 17.5 21.1022 17.5 21.5ZM23 21.5C23 21.7967 22.912 22.0867 22.7472 22.3334C22.5824 22.58 22.3481 22.7723 22.074 22.8858C21.7999 22.9993 21.4983 23.0291 21.2074 22.9712C20.9164 22.9133 20.6491 22.7704 20.4393 22.5607C20.2296 22.3509 20.0867 22.0836 20.0288 21.7926C19.9709 21.5017 20.0007 21.2001 20.1142 20.926C20.2277 20.6519 20.42 20.4176 20.6666 20.2528C20.9133 20.088 21.2033 20 21.5 20C21.8978 20 22.2794 20.158 22.5607 20.4393C22.842 20.7206 23 21.1022 23 21.5Z" fill="white"/>
</g>
</svg>
