<svg width="32" height="32" viewBox="0 0 32 32" fill="none" xmlns="http://www.w3.org/2000/svg">
<g id="Frame">
<path id="Vector" d="M27.0612 9.94L20.0612 2.94C19.9219 2.80052 19.7565 2.68987 19.5744 2.61437C19.3923 2.53887 19.1971 2.50001 19 2.5H6.99996C6.33692 2.5 5.70104 2.76339 5.23219 3.23223C4.76335 3.70107 4.49996 4.33696 4.49996 5V15.5C4.49996 15.8978 4.658 16.2794 4.9393 16.5607C5.22061 16.842 5.60214 17 5.99996 17C6.39779 17 6.77932 16.842 7.06062 16.5607C7.34193 16.2794 7.49996 15.8978 7.49996 15.5V5.5H17V11.5C17 11.8978 17.158 12.2794 17.4393 12.5607C17.7206 12.842 18.1021 13 18.5 13H24.5V26.5H22.5C22.1021 26.5 21.7206 26.658 21.4393 26.9393C21.158 27.2206 21 27.6022 21 28C21 28.3978 21.158 28.7794 21.4393 29.0607C21.7206 29.342 22.1021 29.5 22.5 29.5H25C25.663 29.5 26.2989 29.2366 26.7677 28.7678C27.2366 28.2989 27.5 27.663 27.5 27V11C27.4999 10.6025 27.3421 10.2212 27.0612 9.94ZM20 7.125L22.875 10H20V7.125ZM13.5 15.5C12.173 15.4997 10.8732 15.8767 9.75225 16.5869C8.63129 17.2971 7.73529 18.3113 7.16871 19.5112C5.87492 19.5982 4.66551 20.1843 3.79569 21.146C2.92587 22.1077 2.46368 23.3697 2.50666 24.6657C2.54963 25.9617 3.09442 27.1903 4.02604 28.0923C4.95767 28.9942 6.20326 29.499 7.49996 29.5H13.5C15.3565 29.5 17.137 28.7625 18.4497 27.4497C19.7625 26.137 20.5 24.3565 20.5 22.5C20.5 20.6435 19.7625 18.863 18.4497 17.5503C17.137 16.2375 15.3565 15.5 13.5 15.5ZM13.5 26.5H7.49996C7.04224 26.4999 6.59842 26.3427 6.24259 26.0548C5.88676 25.7669 5.64045 25.3656 5.54479 24.918C5.44912 24.4704 5.50988 24.0035 5.71693 23.5953C5.92398 23.1871 6.26479 22.8622 6.68246 22.675C6.82906 22.9662 7.06654 23.2017 7.35895 23.3459C7.65137 23.49 7.98279 23.535 8.30304 23.474C8.6233 23.413 8.91495 23.2492 9.13385 23.0076C9.35275 22.766 9.48698 22.4597 9.51621 22.135C9.53633 21.9114 9.57479 21.6898 9.63121 21.4725C9.64621 21.4275 9.65871 21.3825 9.66996 21.3363C9.88548 20.6275 10.2936 19.9925 10.8488 19.5021C11.404 19.0117 12.0844 18.6851 12.8144 18.5587C13.5443 18.4323 14.2949 18.511 14.9827 18.7862C15.6705 19.0613 16.2684 19.5221 16.7097 20.1171C17.151 20.7121 17.4184 21.4179 17.4821 22.1559C17.5458 22.894 17.4033 23.6352 17.0705 24.297C16.7377 24.9588 16.2277 25.5152 15.5973 25.9042C14.9668 26.2932 14.2407 26.4994 13.5 26.5Z" fill="#868688"/>
</g>
</svg>
