<svg width="32" height="32" viewBox="0 0 32 32" fill="none" xmlns="http://www.w3.org/2000/svg">
<g id="Frame">
<path id="Vector" d="M24.56 18.9387C24.8418 19.2205 25.0001 19.6027 25.0001 20.0012C25.0001 20.3998 24.8418 20.782 24.56 21.0637C24.2782 21.3455 23.896 21.5039 23.4975 21.5039C23.099 21.5039 22.7168 21.3455 22.435 21.0637L20.9987 19.625V26C20.9987 26.3978 20.8407 26.7794 20.5594 27.0607C20.2781 27.342 19.8965 27.5 19.4987 27.5C19.1009 27.5 18.7194 27.342 18.4381 27.0607C18.1568 26.7794 17.9987 26.3978 17.9987 26V19.625L16.56 21.065C16.2782 21.3468 15.896 21.5051 15.4975 21.5051C15.099 21.5051 14.7168 21.3468 14.435 21.065C14.1532 20.7832 13.9949 20.401 13.9949 20.0025C13.9949 19.604 14.1532 19.2218 14.435 18.94L18.435 14.94C18.5743 14.8002 18.7399 14.6892 18.9222 14.6135C19.1046 14.5378 19.3001 14.4988 19.4975 14.4988C19.6949 14.4988 19.8904 14.5378 20.0727 14.6135C20.255 14.6892 20.4206 14.8002 20.56 14.94L24.56 18.9387ZM19.9987 4.5C17.9226 4.501 15.8855 5.06349 14.103 6.1279C12.3206 7.1923 10.8592 8.71899 9.87372 10.5463C8.72599 10.426 7.56581 10.5408 6.46387 10.8835C5.36193 11.2262 4.34132 11.7898 3.46424 12.5397C2.58716 13.2897 1.87198 14.2104 1.36229 15.2458C0.852592 16.2811 0.55906 17.4094 0.49958 18.5619C0.4401 19.7144 0.615916 20.8669 1.01632 21.9492C1.41671 23.0315 2.03331 24.021 2.82852 24.8573C3.62373 25.6935 4.58091 26.3591 5.64171 26.8135C6.70251 27.2678 7.84472 27.5014 8.99872 27.5H12.4987C12.8965 27.5 13.2781 27.342 13.5594 27.0607C13.8407 26.7794 13.9987 26.3978 13.9987 26C13.9987 25.6022 13.8407 25.2206 13.5594 24.9393C13.2781 24.658 12.8965 24.5 12.4987 24.5H8.99872C7.56549 24.4912 6.1923 23.9233 5.17154 22.9172C4.15077 21.9111 3.56308 20.5462 3.53359 19.1133C3.5041 17.6803 4.03514 16.2924 5.01365 15.2452C5.99215 14.1979 7.34081 13.574 8.77247 13.5063C8.59026 14.325 8.49846 15.1612 8.49872 16C8.49872 16.3978 8.65676 16.7794 8.93806 17.0607C9.21937 17.342 9.6009 17.5 9.99872 17.5C10.3965 17.5 10.7781 17.342 11.0594 17.0607C11.3407 16.7794 11.4987 16.3978 11.4987 16C11.4998 14.7704 11.7675 13.5556 12.2836 12.4396C12.7997 11.3235 13.5518 10.3327 14.488 9.53552C15.4242 8.73834 16.5222 8.15376 17.7062 7.82213C18.8902 7.49049 20.1321 7.41969 21.3462 7.61462C22.5603 7.80955 23.7176 8.26556 24.7383 8.95119C25.759 9.63681 26.6188 10.5357 27.2584 11.5859C27.898 12.6361 28.3021 13.8125 28.4428 15.0341C28.5836 16.2556 28.4577 17.4931 28.0737 18.6612C28.0121 18.8484 27.9879 19.0458 28.0026 19.2423C28.0172 19.4388 28.0705 19.6304 28.1592 19.8064C28.2479 19.9823 28.3704 20.139 28.5198 20.2675C28.6691 20.3961 28.8422 20.494 29.0293 20.5556C29.2165 20.6173 29.4139 20.6414 29.6104 20.6268C29.8069 20.6121 29.9985 20.5589 30.1744 20.4701C30.3504 20.3814 30.5071 20.2589 30.6356 20.1096C30.7642 19.9603 30.8621 19.7871 30.9237 19.6C31.4915 17.8723 31.6416 16.0346 31.3619 14.2376C31.0822 12.4406 30.3806 10.7355 29.3146 9.26208C28.2485 7.78866 26.8484 6.58888 25.2291 5.76111C23.6098 4.93335 21.8173 4.50116 19.9987 4.5Z" fill="#FD532E"/>
</g>
</svg>
