<svg width="32" height="32" viewBox="0 0 32 32" fill="none" xmlns="http://www.w3.org/2000/svg">
<path d="M24.6486 25C24.8632 25.0002 25.0747 24.9517 25.2657 24.8585C25.4567 24.7653 25.6216 24.6301 25.7467 24.4641C25.8719 24.2981 25.9536 24.1061 25.9853 23.904C26.0169 23.7019 25.9974 23.4956 25.9286 23.302V23.3036L20.4578 7.87517C20.3676 7.6203 20.1958 7.39877 19.9665 7.24177C19.7371 7.08477 19.4619 7.00021 19.1794 7H12.8195C12.537 7.00021 12.2617 7.08477 12.0324 7.24177C11.8031 7.39877 11.6313 7.6203 11.5411 7.87517L6.07116 23.3028C6.00243 23.4963 5.98312 23.7026 6.01482 23.9046C6.04652 24.1066 6.12832 24.2985 6.25344 24.4644C6.37855 24.6303 6.54339 24.7654 6.73429 24.8585C6.92518 24.9517 7.13664 25.0002 7.35115 25H11.302C11.5846 25 11.86 24.9155 12.0895 24.7585C12.319 24.6015 12.4909 24.3798 12.5811 24.1248L13.3953 21.8302L17.5178 24.7461C17.7511 24.9111 18.0328 25 18.3228 25M15.7528 15.0574L18.7728 23.5782C18.7956 23.6425 18.8021 23.7111 18.7916 23.7783C18.7811 23.8456 18.754 23.9094 18.7125 23.9647C18.671 24.02 18.6162 24.065 18.5528 24.0962C18.4894 24.1273 18.4191 24.1437 18.3478 24.1439L18.3228 24.1431C18.2262 24.1432 18.1321 24.1137 18.0544 24.059L10.3153 18.5842H14.3594M19.6203 24.1431C19.7169 23.8844 19.7286 23.5924 19.6261 23.3036L14.1578 7.87517C14.1559 7.86986 14.1539 7.86457 14.152 7.8593H19.1803C19.2743 7.85916 19.3661 7.88711 19.4426 7.9392C19.5192 7.99128 19.5766 8.0649 19.6069 8.1497L25.0752 23.5782C25.1134 23.6857 25.1051 23.8032 25.0523 23.905C24.9995 24.0067 24.9064 24.0844 24.7936 24.1209" fill="white"/>
</svg>
