<svg width="32" height="32" viewBox="0 0 32 32" fill="none" xmlns="http://www.w3.org/2000/svg">
<path d="M15.124 24.0414C15.2013 24.1067 15.284 24.1721 15.3653 24.2361C13.796 25.2801 11.912 25.8867 9.88933 25.8867C4.42667 25.8881 0 21.4614 0 16.0001C0 10.5401 4.42667 6.11206 9.888 6.11206C11.912 6.11206 13.796 6.72006 15.3613 7.76273C15.2813 7.83073 15.2013 7.89339 15.1413 7.96273C12.8 9.98539 11.46 12.9174 11.46 16.0001C11.46 19.0814 12.7947 22.0134 15.124 24.0414ZM22.112 6.11206C20.0853 6.11206 18.204 6.72006 16.6387 7.76273C16.7187 7.83073 16.7987 7.89339 16.8587 7.96273C19.2 9.98539 20.54 12.9174 20.54 16.0001C20.54 19.0801 19.2053 22.0094 16.876 24.0414C16.7987 24.1067 16.716 24.1721 16.6347 24.2361C18.204 25.2801 20.0853 25.8867 22.1107 25.8867C27.5733 25.8881 32 21.4614 32 16.0001C32 10.5414 27.5733 6.11206 22.112 6.11206ZM16 8.23206C15.872 8.33206 15.748 8.43206 15.6267 8.54006C13.5413 10.3521 12.2253 13.0201 12.2253 16.0001C12.2253 18.9814 13.5413 21.6481 15.6267 23.4601C15.7467 23.5667 15.8733 23.6707 16 23.7694C16.128 23.6707 16.252 23.5667 16.3733 23.4601C18.4573 21.6481 19.7747 18.9814 19.7747 16.0001C19.7747 13.0201 18.4587 10.3521 16.3733 8.54006C16.2533 8.43339 16.128 8.33206 16 8.23206Z" fill="white"/>
</svg>
