<svg width="40" height="32" viewBox="0 0 40 32" fill="none" xmlns="http://www.w3.org/2000/svg">
<g clip-path="url(#clip0_401_248)">
<path d="M27.5444 17.6167L27.9286 17.7447C27.903 17.8656 27.8646 17.9652 27.8069 18.0435C27.7493 18.1217 27.6853 18.1857 27.602 18.2213C27.5188 18.264 27.4163 18.2853 27.2882 18.2853C27.1345 18.2853 27.0128 18.264 26.9104 18.2142C26.8143 18.1644 26.7311 18.079 26.6606 17.951C26.5902 17.8301 26.5518 17.6665 26.5518 17.4744C26.5518 17.2184 26.6158 17.0192 26.7375 16.8769C26.8591 16.7347 27.0385 16.6707 27.2626 16.6707C27.4419 16.6707 27.5764 16.7133 27.6789 16.7916C27.7813 16.8698 27.8582 16.9907 27.903 17.1614L27.5188 17.2539C27.5059 17.2041 27.4931 17.1686 27.4739 17.1472C27.4483 17.1117 27.4227 17.0832 27.3843 17.0619C27.3458 17.0405 27.3074 17.0334 27.269 17.0334C27.1729 17.0334 27.0961 17.0761 27.0449 17.1686C27.0064 17.2326 26.9872 17.3393 26.9872 17.4744C26.9872 17.6451 27.0128 17.7661 27.0577 17.8301C27.1025 17.8941 27.1729 17.9297 27.2562 17.9297C27.3394 17.9297 27.4035 17.9012 27.4419 17.8514C27.4931 17.7874 27.5252 17.7163 27.5444 17.6167Z" fill="white"/>
<path d="M28.0825 17.4745C28.0825 17.2184 28.1466 17.0192 28.2746 16.877C28.4027 16.7347 28.582 16.6636 28.8126 16.6636C29.0495 16.6636 29.2288 16.7347 29.3569 16.8699C29.485 17.0121 29.549 17.2042 29.549 17.4602C29.549 17.6452 29.5234 17.7945 29.4658 17.9083C29.4081 18.0222 29.3313 18.1146 29.2224 18.1786C29.12 18.2427 28.9855 18.2782 28.8318 18.2782C28.6717 18.2782 28.5436 18.2498 28.4347 18.1929C28.3323 18.136 28.249 18.0506 28.1786 17.9226C28.1081 17.7945 28.0825 17.6594 28.0825 17.4745ZM28.518 17.4745C28.518 17.6309 28.5436 17.7447 28.5948 17.8159C28.6461 17.887 28.7165 17.9226 28.8126 17.9226C28.9086 17.9226 28.9791 17.887 29.0303 17.823C29.0815 17.7519 29.1072 17.6309 29.1072 17.4602C29.1072 17.3109 29.0815 17.2042 29.0239 17.1401C28.9727 17.069 28.8958 17.0406 28.8062 17.0406C28.7165 17.0406 28.6461 17.0761 28.5948 17.1473C28.5436 17.2042 28.518 17.318 28.518 17.4745Z" fill="white"/>
<path d="M29.7731 16.6921H30.343L30.5607 17.6453L30.7785 16.6921H31.3484V18.257H30.9898V17.062L30.7144 18.257H30.3942L30.1189 17.062V18.257H29.7603V16.6921H29.7731Z" fill="white"/>
<path d="M31.6299 16.6921H32.3535C32.5136 16.6921 32.6289 16.7348 32.7057 16.8202C32.7826 16.9055 32.821 17.0193 32.821 17.1758C32.821 17.3323 32.7762 17.4603 32.6929 17.5457C32.6097 17.6382 32.4752 17.6808 32.3023 17.6808H32.0654V18.2641H31.6299V16.6921ZM32.0654 17.3608H32.1742C32.2575 17.3608 32.3151 17.3465 32.3535 17.311C32.3855 17.2754 32.4048 17.2398 32.4048 17.19C32.4048 17.1403 32.392 17.0976 32.3599 17.062C32.3279 17.0264 32.2767 17.0122 32.1934 17.0122H32.0718V17.3608H32.0654Z" fill="white"/>
<path d="M33.0518 16.6921H33.4872V17.8729H34.166V18.257H33.0518V16.6921Z" fill="white"/>
<path d="M34.3838 16.6921H34.8193V18.257H34.3838V16.6921Z" fill="white"/>
<path d="M35.9976 17.9936H35.5045L35.4341 18.2497H34.9922L35.5237 16.6848H35.9976L36.5291 18.2497H36.0745L35.9976 17.9936ZM35.908 17.6593L35.7543 17.0974L35.6006 17.6593H35.908Z" fill="white"/>
<path d="M36.6636 16.6921H37.067L37.5985 17.5599V16.6921H38.0084V18.257H37.5985L37.0734 17.3963V18.257H36.6636V16.6921Z" fill="white"/>
<path d="M38.2007 16.6921H39.5263V17.0762H39.0844V18.257H38.649V17.0762H38.2071V16.6921H38.2007Z" fill="white"/>
<path d="M22.3061 19.0748L23.5677 18.6338L23.1579 17.6237C22.8569 18.0434 22.5559 18.584 22.3061 19.0748ZM21.8771 14.4585L19.4052 8.34131L1.30762 9.47938L6.3219 24.6727L15.9726 21.294C15.3579 20.3124 15.1337 19.1459 15.8446 18.5769C16.6386 17.9367 17.8362 18.6765 18.5983 19.7221C19.3347 18.3564 21.4032 15.1769 21.8771 14.4585Z" fill="white"/>
<path d="M18.8416 12.7621C19.5973 12.7621 20.2121 12.1219 20.2121 11.3252C20.2121 10.5286 19.5973 9.88843 18.8416 9.88843C18.086 9.88843 17.4712 10.5286 17.4712 11.3252C17.4712 12.1148 18.086 12.7621 18.8416 12.7621ZM17.7209 13.3809H19.9623V19.8893H17.7209V13.3809Z" fill="#202020"/>
<path d="M16.6129 15.2801C16.6321 15.2873 16.6449 15.2802 16.6449 15.2588V13.6086C16.6449 13.5873 16.6321 13.5659 16.6129 13.5517C16.6129 13.5517 16.3183 13.3383 15.4218 13.2814C15.3769 13.253 14.5892 13.2458 14.3779 13.2814C11.1119 13.573 10.9902 16.1977 10.9902 16.3115V16.9517C10.9902 17.0299 10.9902 19.7115 14.3779 19.9463C14.7109 19.9747 15.3577 19.9463 15.4218 19.9463C16.203 19.9463 16.741 19.6831 16.741 19.6831C16.7602 19.676 16.773 19.6546 16.773 19.6333V18.0898C16.773 18.0684 16.7602 18.0613 16.7474 18.0755C16.7474 18.0755 16.504 18.2889 15.441 18.4099C15.14 18.4454 14.9927 18.4312 14.8838 18.4099C13.3725 18.1253 13.3021 16.9019 13.3021 16.9019C13.3021 16.8806 13.2957 16.845 13.2957 16.8308V16.3613C13.2957 16.34 13.2957 16.3044 13.3021 16.2902C13.3021 16.2902 13.4045 14.9743 14.8838 14.832H15.441C16.0878 14.9245 16.6129 15.2801 16.6129 15.2801Z" fill="#202020"/>
<path d="M4.76562 19.868C4.76562 19.8894 4.77843 19.9036 4.79764 19.9036H6.98139C7.0006 19.9036 7.01341 19.8894 7.01341 19.868V17.976C7.01341 17.9546 7.02622 17.9404 7.04543 17.9404C7.04543 17.9404 10.5356 18.2178 10.5356 15.6216C10.5356 13.5659 8.34543 13.3454 7.62819 13.381C7.61538 13.381 4.79764 13.381 4.79764 13.381C4.77843 13.381 4.76562 13.3952 4.76562 13.4165V19.868ZM6.97498 16.4965V14.7965H7.51292C7.51292 14.7965 8.28779 14.832 8.35183 15.4224C8.36464 15.4651 8.36464 15.7567 8.35183 15.7709C8.24937 16.4609 7.57696 16.4965 7.57696 16.4965H6.97498Z" fill="#202020"/>
<path d="M18.9059 23.0296C19.0852 23.0296 19.2261 23.0296 19.4566 22.9158C20.2507 22.4535 22.934 15.1769 25.7645 12.9363C25.7837 12.9221 25.8029 12.9008 25.8157 12.8794C25.8349 12.851 25.8349 12.8225 25.8349 12.8225C25.8349 12.8225 25.8349 12.6731 25.4187 12.6731C22.9019 12.5949 20.2827 18.4631 18.9059 20.7819C18.8867 20.8104 18.797 20.7819 18.797 20.7819C18.797 20.7819 17.8748 19.5727 17.0743 19.1104C17.0551 19.1033 16.9655 19.0677 16.8694 19.0748C16.8054 19.0748 16.434 19.1602 16.261 19.3593C16.0561 19.6012 16.0625 19.7363 16.0625 20.0279C16.0625 20.0493 16.0753 20.1489 16.1009 20.1987C16.2995 20.5828 17.1896 21.9485 17.9261 22.7024C18.0349 22.7949 18.2078 23.0296 18.9059 23.0296Z" fill="white"/>
<path d="M26.5073 10.7385H28.6014C29.0177 10.7385 29.3507 10.8025 29.6004 10.9235C29.8566 11.0515 30.0679 11.2293 30.228 11.4569C30.3945 11.6917 30.5162 11.962 30.5866 12.2678C30.6635 12.5737 30.7019 12.9009 30.7019 13.2494C30.7019 13.79 30.6443 14.2097 30.5354 14.5084C30.4265 14.8071 30.2728 15.0561 30.0743 15.2624C29.8758 15.4615 29.6645 15.5967 29.4403 15.6678C29.1329 15.7603 28.8512 15.803 28.6014 15.803H26.5073V10.7385ZM27.9162 11.8837V14.6507H28.262C28.5566 14.6507 28.7679 14.6151 28.8896 14.544C29.0113 14.4728 29.1137 14.3448 29.1842 14.167C29.2546 13.9892 29.293 13.6904 29.293 13.285C29.293 12.7444 29.2162 12.3816 29.0561 12.1825C28.896 11.9833 28.6398 11.8837 28.2684 11.8837H27.9162Z" fill="white"/>
<path d="M31.0928 14.1314L32.4376 14.0389C32.4696 14.2807 32.5273 14.4657 32.6169 14.5937C32.7642 14.8 32.9691 14.8996 33.2381 14.8996C33.4366 14.8996 33.5967 14.8498 33.7056 14.7431C33.8144 14.6364 33.8721 14.5155 33.8721 14.3803C33.8721 14.2523 33.8209 14.1314 33.7184 14.0247C33.6159 13.918 33.3726 13.8255 32.9947 13.733C32.3736 13.5765 31.9381 13.3703 31.6691 13.1142C31.4002 12.8581 31.2721 12.5309 31.2721 12.1326C31.2721 11.8694 31.3425 11.6276 31.477 11.3929C31.6115 11.1581 31.8164 10.9803 32.0918 10.8452C32.3672 10.71 32.7386 10.646 33.2125 10.646C33.7952 10.646 34.2435 10.7669 34.5445 11.0088C34.8519 11.2506 35.0312 11.6347 35.0888 12.1611L33.7568 12.2464C33.7184 12.0188 33.6479 11.8552 33.5327 11.7485C33.4174 11.6418 33.2637 11.592 33.0652 11.592C32.8987 11.592 32.777 11.6276 32.6938 11.7058C32.6105 11.7841 32.5721 11.8765 32.5721 11.9903C32.5721 12.0686 32.6041 12.1468 32.6745 12.2109C32.7386 12.2749 32.8987 12.3389 33.1484 12.3958C33.7632 12.5452 34.2051 12.6945 34.4741 12.8439C34.743 12.9933 34.9351 13.1853 35.0568 13.4058C35.1785 13.6263 35.2361 13.8824 35.2361 14.1598C35.2361 14.487 35.1529 14.7857 34.9928 15.056C34.8327 15.3334 34.6021 15.5397 34.314 15.682C34.0258 15.8242 33.6543 15.8954 33.2125 15.8954C32.4376 15.8954 31.8997 15.7318 31.5987 15.3975C31.3041 15.0632 31.1376 14.6435 31.0928 14.1314Z" fill="white"/>
<path d="M35.5942 14.1314L36.9391 14.0389C36.9711 14.2807 37.0287 14.4657 37.1184 14.5937C37.2657 14.8 37.4706 14.8996 37.7396 14.8996C37.9381 14.8996 38.0982 14.8498 38.207 14.7431C38.3159 14.6364 38.3735 14.5155 38.3735 14.3803C38.3735 14.2523 38.3223 14.1314 38.2199 14.0247C38.1174 13.918 37.874 13.8255 37.4962 13.733C36.875 13.5765 36.4396 13.3703 36.1706 13.1142C35.908 12.8581 35.7735 12.5309 35.7735 12.1326C35.7735 11.8694 35.844 11.6276 35.9785 11.3929C36.113 11.1581 36.3179 10.9803 36.5933 10.8452C36.8686 10.71 37.24 10.646 37.7139 10.646C38.2967 10.646 38.745 10.7669 39.046 11.0088C39.3533 11.2506 39.5327 11.6347 39.5903 12.1611L38.2583 12.2464C38.2199 12.0188 38.1494 11.8552 38.0341 11.7485C37.9189 11.6418 37.7652 11.592 37.5667 11.592C37.4001 11.592 37.2785 11.6276 37.1952 11.7058C37.112 11.7841 37.0735 11.8765 37.0735 11.9903C37.0735 12.0686 37.1056 12.1468 37.176 12.2109C37.2401 12.2749 37.4001 12.3389 37.6499 12.3958C38.2647 12.5452 38.7066 12.6945 38.9755 12.8439C39.2445 12.9933 39.4366 13.1853 39.5583 13.4058C39.68 13.6263 39.7376 13.8824 39.7376 14.1598C39.7376 14.487 39.6543 14.7857 39.4942 15.056C39.3341 15.3334 39.1036 15.5397 38.8154 15.682C38.5272 15.8242 38.1558 15.8954 37.7139 15.8954C36.9391 15.8954 36.4011 15.7318 36.1001 15.3975C35.7992 15.0632 35.6327 14.6435 35.5942 14.1314Z" fill="white"/>
</g>
<defs>
<clipPath id="clip0_401_248">
<rect width="39" height="17" fill="white" transform="translate(1 8)"/>
</clipPath>
</defs>
</svg>
