<svg width="32" height="32" viewBox="0 0 32 32" fill="none" xmlns="http://www.w3.org/2000/svg">
<path d="M12.1493 11.016L7.96 21.0107H5.22667L3.16533 13.0334C3.04 12.5427 2.932 12.3627 2.55067 12.156C1.92933 11.8187 0.902667 11.5027 0 11.3054L0.0613333 11.016H4.46133C4.74886 11.0157 5.02703 11.1183 5.24561 11.3051C5.4642 11.4919 5.6088 11.7506 5.65333 12.0347L6.74267 17.8187L9.43333 11.016H12.1493ZM22.86 17.748C22.8707 15.1094 19.212 14.964 19.2373 13.7854C19.2453 13.4267 19.5867 13.0454 20.3333 12.948C21.2084 12.8649 22.0896 13.0197 22.884 13.396L23.3373 11.276C22.564 10.9853 21.7449 10.8349 20.9187 10.832C18.3627 10.832 16.564 12.192 16.548 14.1374C16.532 15.576 17.832 16.3774 18.812 16.8574C19.82 17.3467 20.1587 17.6614 20.1533 18.0987C20.1467 18.7707 19.3507 19.0654 18.6067 19.0774C17.3067 19.0974 16.5533 18.7267 15.9507 18.4467L15.4827 20.636C16.0867 20.9134 17.2013 21.156 18.3573 21.1667C21.0733 21.1667 22.8507 19.8254 22.86 17.748ZM29.608 21.0107H32L29.9133 11.016H27.7053C27.4694 11.0138 27.2383 11.0826 27.0419 11.2133C26.8455 11.3441 26.693 11.5309 26.604 11.7494L22.7253 21.0107H25.44L25.98 19.5174H29.2973L29.608 21.0107ZM26.724 17.4694L28.084 13.716L28.868 17.4694H26.724ZM15.844 11.016L13.7067 21.0107H11.12L13.26 11.016H15.844Z" fill="white"/>
</svg>
