<svg xmlns="http://www.w3.org/2000/svg" aria-hidden="true" style="position:absolute;width:0;height:0;overflow:hidden">
  <defs>
    <symbol id="icon-plus" viewBox="0 0 32 32">
      <path d="M28.5 16a1.503 1.503 0 0 1-1.5 1.5h-9.5V27a1.503 1.503 0 0 1-1.5 1.5 1.503 1.503 0 0 1-1.5-1.5v-9.5H5A1.503 1.503 0 0 1 3.5 16 1.503 1.503 0 0 1 5 14.5h9.5V5A1.503 1.503 0 0 1 16 3.5 1.503 1.503 0 0 1 17.5 5v9.5H27a1.503 1.503 0 0 1 1.5 1.5z"/>
    </symbol>
    <symbol id="icon-trash" viewBox="0 0 32 32">
      <path d="M27 6H5a1.503 1.503 0 0 0-1.5 1.5A1.503 1.503 0 0 0 5 9h.5v17A2.5 2.5 0 0 0 8 28.5h16a2.5 2.5 0 0 0 2.5-2.5V9h.5a1.503 1.503 0 0 0 1.5-1.5A1.503 1.503 0 0 0 27 6zm-3.5 19.5h-15V9h15v16.5zm-14-23A1.503 1.503 0 0 1 11 1h10a1.503 1.503 0 0 1 1.5 1.5A1.503 1.503 0 0 1 21 4H11a1.503 1.503 0 0 1-1.5-1.5z"/>
    </symbol>
  </defs>
</svg>
