<svg width="162" height="32" viewBox="0 0 162 32" fill="none" xmlns="http://www.w3.org/2000/svg">
<path d="M21.4803 25.8909L0 25.9232V29.608C0 30.9333 1.09824 32 2.4549 32H30.234C31.5906 32 32.6889 30.9333 32.6889 29.608V14.8687L21.4803 25.8909Z" fill="white"/>
<path d="M0 2.39192V7.62828H20.5113L13.9218 13.9636L0 13.996V19.5879H18.7993L32.6889 5.91515V2.39192C32.6889 1.06667 31.5906 0 30.234 0H2.4549C1.09824 0 0 1.06667 0 2.39192Z" fill="white"/>
<path d="M42.4441 28.3475C41.9919 28.3475 41.6043 28.1859 41.3135 27.895C40.9905 27.6041 40.8613 27.2162 40.8613 26.7637V5.97986C40.8613 5.36572 41.0874 4.81622 41.5397 4.3637C41.9919 3.91117 42.541 3.68491 43.1547 3.68491H43.6069C43.9946 3.68491 44.3822 3.78188 44.7052 3.97582C45.0282 4.16976 45.3189 4.42834 45.545 4.75158L59.2084 24.1455V5.26875C59.2084 4.81622 59.37 4.46067 59.6607 4.13744C59.9514 3.8142 60.339 3.65259 60.7912 3.65259C61.2434 3.65259 61.631 3.8142 61.9541 4.13744C62.2771 4.46067 62.4386 4.81622 62.4386 5.26875V26.0849C62.4386 26.699 62.2125 27.2485 61.7602 27.7011C61.308 28.1536 60.7589 28.3475 60.1129 28.3475H59.693C59.3054 28.3475 58.95 28.2506 58.627 28.0889C58.304 27.9273 58.0133 27.7011 57.8195 27.4102L44.0915 7.91925V26.7637C44.0915 27.2162 43.9299 27.5718 43.6069 27.895C43.2516 28.1859 42.8963 28.3475 42.4441 28.3475Z" fill="white" stroke="white" stroke-miterlimit="10"/>
<path d="M78.8481 28.5091C76.3286 28.5091 74.1321 27.9596 72.2909 26.8929C70.4498 25.8263 69.0285 24.3394 67.9949 22.4646C66.9935 20.5899 66.4444 18.4242 66.4121 15.9677C66.4444 13.5434 66.9935 11.3778 67.9949 9.47071C68.9962 7.59596 70.4498 6.1091 72.2909 5.04243C74.1321 3.97576 76.3286 3.42627 78.8481 3.42627C81.3676 3.42627 83.5641 3.97576 85.4052 5.04243C87.2464 6.1091 88.6677 7.59596 89.7013 9.47071C90.7027 11.3455 91.2518 13.5111 91.2841 15.9677C91.2518 18.3919 90.7027 20.5576 89.7013 22.4646C88.7 24.3394 87.2464 25.8263 85.4052 26.8929C83.5641 27.9919 81.3676 28.5091 78.8481 28.5091ZM78.8481 25.5677C80.8185 25.5677 82.4658 25.1475 83.8548 24.3071C85.2114 23.4667 86.2774 22.303 86.988 20.8808C87.6986 19.4263 88.054 17.8101 88.054 16.0323C88.054 14.2545 87.6986 12.6384 86.988 11.1838C86.2774 9.7293 85.2114 8.59798 83.8548 7.75758C82.4981 6.91718 80.8185 6.49698 78.8481 6.49698C76.8777 6.49698 75.2304 6.91718 73.8414 7.75758C72.4847 8.59798 71.4188 9.76162 70.7082 11.1838C69.9975 12.6384 69.6422 14.2545 69.6422 16.0323C69.6422 17.8101 69.9975 19.4263 70.7082 20.8808C71.4188 22.3354 72.4847 23.4667 73.8414 24.3071C75.1981 25.1475 76.8777 25.5677 78.8481 25.5677Z" fill="white" stroke="white" stroke-miterlimit="10"/>
<path d="M101.588 28.3473C101.136 28.3473 100.748 28.1857 100.458 27.8948C100.135 27.6039 100.006 27.216 100.006 26.7635V6.82007H92.77C92.3501 6.82007 91.9948 6.69078 91.7041 6.39987C91.4134 6.10896 91.2842 5.78573 91.2842 5.36553C91.2842 4.94533 91.4134 4.58977 91.7041 4.29886C91.9948 4.00796 92.3501 3.87866 92.77 3.87866H110.439C110.859 3.87866 111.214 4.00796 111.505 4.29886C111.795 4.58977 111.957 4.94533 111.957 5.36553C111.957 5.78573 111.795 6.14129 111.505 6.39987C111.214 6.69078 110.859 6.82007 110.439 6.82007H103.236V26.7958C103.236 27.2483 103.074 27.6039 102.751 27.9271C102.428 28.1857 102.04 28.3473 101.588 28.3473Z" fill="white" stroke="white" stroke-miterlimit="10"/>
<path d="M112.15 28.3475C111.666 28.3475 111.278 28.1859 110.987 27.895C110.697 27.6041 110.567 27.2162 110.567 26.7637C110.567 26.5697 110.632 26.3435 110.729 26.0526L119.773 5.07481C119.935 4.71925 120.193 4.3637 120.548 4.07279C120.904 3.78188 121.324 3.65259 121.841 3.65259H122.196C122.745 3.65259 123.165 3.78188 123.52 4.07279C123.843 4.3637 124.102 4.68693 124.263 5.07481L133.307 26.0526C133.437 26.3435 133.469 26.5697 133.469 26.7637C133.469 27.2162 133.34 27.5718 133.049 27.895C132.758 28.2182 132.371 28.3475 131.886 28.3475C131.143 28.3475 130.659 28.0243 130.368 27.3778L128.075 21.9475H116.026L113.701 27.3778C113.41 28.0243 112.893 28.3475 112.15 28.3475ZM117.221 19.0384H126.783L122.002 7.72531L117.221 19.0384Z" fill="white" stroke="white" stroke-miterlimit="10"/>
<path d="M137.183 14.7392C136.989 14.7392 136.828 14.6746 136.699 14.5453C136.569 14.416 136.505 14.2544 136.505 14.0604V4.23416C136.505 4.04022 136.569 3.8786 136.699 3.74931C136.828 3.62002 136.989 3.55537 137.183 3.55537C137.377 3.55537 137.539 3.62002 137.668 3.74931C137.797 3.8786 137.862 4.04022 137.862 4.23416V4.62204C138.217 4.26648 138.604 3.97557 139.024 3.78163C139.444 3.58769 139.929 3.49072 140.446 3.49072C141.059 3.49072 141.641 3.65234 142.19 3.94325C142.739 4.26648 143.191 4.68668 143.547 5.2685C143.902 5.85032 144.096 6.56143 144.096 7.40183C144.096 8.24224 143.902 8.95335 143.547 9.53516C143.191 10.117 142.739 10.5695 142.19 10.8604C141.641 11.1836 141.059 11.3129 140.446 11.3129C139.929 11.3129 139.444 11.216 139.024 11.022C138.604 10.8281 138.217 10.5372 137.862 10.1816V13.9958C137.862 14.1897 137.797 14.3513 137.668 14.4806C137.539 14.6746 137.377 14.7392 137.183 14.7392ZM140.284 10.117C140.995 10.117 141.608 9.89072 142.061 9.43819C142.545 8.98567 142.771 8.30688 142.771 7.43415C142.771 6.56143 142.545 5.88264 142.061 5.43012C141.576 4.97759 140.995 4.75133 140.284 4.75133C139.8 4.75133 139.347 4.8483 138.927 5.07456C138.508 5.30082 138.185 5.55941 137.894 5.88264V9.01799C138.185 9.34122 138.54 9.59981 138.927 9.82607C139.315 10.02 139.767 10.117 140.284 10.117Z" fill="white" stroke="white" stroke-miterlimit="10"/>
<path d="M148.036 11.3777C147.616 11.3777 147.196 11.2807 146.809 11.1191C146.421 10.9252 146.13 10.6989 145.904 10.3433C145.678 10.0201 145.549 9.59991 145.549 9.14738C145.549 8.43627 145.84 7.85445 146.421 7.40193C147.002 6.9494 147.875 6.72314 149.037 6.72314H150.879V6.59385C150.879 5.91506 150.717 5.46254 150.394 5.17163C150.071 4.88072 149.554 4.75142 148.876 4.75142C148.456 4.75142 148.068 4.78375 147.778 4.84839C147.455 4.91304 147.164 5.01001 146.873 5.10698C146.776 5.1393 146.712 5.1393 146.679 5.1393C146.518 5.1393 146.389 5.07466 146.292 4.97769C146.195 4.88072 146.13 4.7191 146.13 4.58981C146.13 4.33122 146.259 4.13728 146.518 4.00799C146.873 3.84637 147.261 3.71708 147.681 3.62011C148.101 3.52314 148.585 3.4585 149.134 3.4585C149.877 3.4585 150.459 3.58779 150.943 3.8787C151.395 4.16961 151.751 4.52516 151.977 4.97769C152.203 5.43021 152.3 5.88274 152.3 6.36759V10.5696C152.3 10.7635 152.235 10.9252 152.106 11.0545C151.977 11.1837 151.815 11.2484 151.621 11.2484C151.428 11.2484 151.266 11.1837 151.137 11.0545C151.008 10.9252 150.943 10.7635 150.943 10.5696V10.1817C150.685 10.4726 150.297 10.7312 149.845 10.9575C149.328 11.2807 148.747 11.3777 148.036 11.3777ZM148.553 10.1817C149.037 10.1817 149.457 10.0524 149.877 9.82617C150.297 9.59991 150.62 9.34132 150.879 9.05041V7.78981H149.231C148.521 7.78981 147.971 7.88678 147.552 8.04839C147.132 8.24233 146.938 8.53324 146.938 8.95344C146.938 9.27668 147.067 9.53526 147.293 9.79385C147.519 10.0848 147.939 10.1817 148.553 10.1817Z" fill="white" stroke="white" stroke-miterlimit="10"/>
<path d="M156.176 14.7393C155.982 14.7393 155.853 14.6746 155.724 14.5453C155.594 14.416 155.53 14.2544 155.53 14.0928C155.53 13.9958 155.53 13.9312 155.562 13.8665L156.531 11.3776L153.689 4.52512C153.689 4.49279 153.656 4.42815 153.656 4.39582C153.656 4.33118 153.624 4.29885 153.624 4.23421C153.624 4.04027 153.689 3.87865 153.818 3.74936C153.947 3.62007 154.109 3.55542 154.302 3.55542C154.432 3.55542 154.561 3.58774 154.69 3.68471C154.819 3.74936 154.884 3.87865 154.948 3.97562L157.274 9.66451L159.664 4.00794C159.729 3.87865 159.794 3.74936 159.923 3.68471C160.02 3.62007 160.149 3.55542 160.31 3.55542C160.504 3.55542 160.666 3.62007 160.795 3.74936C160.924 3.87865 160.989 4.04027 160.989 4.23421C160.989 4.33118 160.989 4.39582 160.956 4.49279L156.822 14.2544C156.757 14.3837 156.693 14.4807 156.563 14.5776C156.467 14.7069 156.337 14.7393 156.176 14.7393Z" fill="white" stroke="white" stroke-miterlimit="10"/>
</svg>
