<svg width="64" height="64" viewBox="0 0 64 64" fill="none" xmlns="http://www.w3.org/2000/svg">
<path opacity="0.2" d="M48 40C48 41.3132 47.7413 42.6136 47.2388 43.8268C46.7362 45.0401 45.9997 46.1425 45.0711 47.0711C44.1425 47.9997 43.0401 48.7362 41.8268 49.2388C40.6136 49.7413 39.3132 50 38 50H20V12H35C37.3869 12 39.6761 12.9482 41.364 14.636C43.0518 16.3239 44 18.6131 44 21C44 23.3869 43.0518 25.6761 41.364 27.364C39.6761 29.0518 37.3869 30 35 30H38C39.3132 30 40.6136 30.2587 41.8268 30.7612C43.0401 31.2638 44.1425 32.0003 45.0711 32.9289C45.9997 33.8575 46.7362 34.9599 47.2388 36.1732C47.7413 37.3864 48 38.6868 48 40Z" fill="#FD532E"/>
<path d="M42.62 28.925C44.138 27.4634 45.2042 25.5965 45.6918 23.5465C46.1794 21.4964 46.0679 19.3494 45.3706 17.3609C44.6733 15.3724 43.4194 13.626 41.7582 12.3295C40.097 11.033 38.0984 10.2409 36 10.0475V6C36 5.46957 35.7893 4.96086 35.4142 4.58579C35.0391 4.21071 34.5304 4 34 4C33.4696 4 32.9609 4.21071 32.5858 4.58579C32.2107 4.96086 32 5.46957 32 6V10H28V6C28 5.46957 27.7893 4.96086 27.4142 4.58579C27.0391 4.21071 26.5304 4 26 4C25.4696 4 24.9609 4.21071 24.5858 4.58579C24.2107 4.96086 24 5.46957 24 6V10H16C15.4696 10 14.9609 10.2107 14.5858 10.5858C14.2107 10.9609 14 11.4696 14 12C14 12.5304 14.2107 13.0391 14.5858 13.4142C14.9609 13.7893 15.4696 14 16 14H18V48H16C15.4696 48 14.9609 48.2107 14.5858 48.5858C14.2107 48.9609 14 49.4696 14 50C14 50.5304 14.2107 51.0391 14.5858 51.4142C14.9609 51.7893 15.4696 52 16 52H24V56C24 56.5304 24.2107 57.0391 24.5858 57.4142C24.9609 57.7893 25.4696 58 26 58C26.5304 58 27.0391 57.7893 27.4142 57.4142C27.7893 57.0391 28 56.5304 28 56V52H32V56C32 56.5304 32.2107 57.0391 32.5858 57.4142C32.9609 57.7893 33.4696 58 34 58C34.5304 58 35.0391 57.7893 35.4142 57.4142C35.7893 57.0391 36 56.5304 36 56V52H38C40.7737 52 43.4617 51.0392 45.6069 49.2809C47.7521 47.5226 49.2219 45.0755 49.7665 42.3558C50.311 39.6361 49.8966 36.8118 48.5937 34.3632C47.2908 31.9145 45.1799 29.9929 42.62 28.925ZM22 14H35C36.8565 14 38.637 14.7375 39.9497 16.0503C41.2625 17.363 42 19.1435 42 21C42 22.8565 41.2625 24.637 39.9497 25.9497C38.637 27.2625 36.8565 28 35 28H22V14ZM38 48H22V32H38C40.1217 32 42.1566 32.8429 43.6569 34.3431C45.1571 35.8434 46 37.8783 46 40C46 42.1217 45.1571 44.1566 43.6569 45.6569C42.1566 47.1571 40.1217 48 38 48Z" fill="white"/>
</svg>
