<svg width="64" height="64" viewBox="0 0 64 64" fill="none" xmlns="http://www.w3.org/2000/svg">
<path opacity="0.2" d="M56 38V50C56 50.5304 55.7893 51.0391 55.4142 51.4142C55.0391 51.7893 54.5304 52 54 52H10C9.46957 52 8.96086 51.7893 8.58579 51.4142C8.21071 51.0391 8 50.5304 8 50V38H56Z" fill="#FD532E"/>
<path d="M54 14H44V12C44 10.4087 43.3679 8.88258 42.2426 7.75736C41.1174 6.63214 39.5913 6 38 6H26C24.4087 6 22.8826 6.63214 21.7574 7.75736C20.6321 8.88258 20 10.4087 20 12V14H10C8.93913 14 7.92172 14.4214 7.17157 15.1716C6.42143 15.9217 6 16.9391 6 18V50C6 51.0609 6.42143 52.0783 7.17157 52.8284C7.92172 53.5786 8.93913 54 10 54H54C55.0609 54 56.0783 53.5786 56.8284 52.8284C57.5786 52.0783 58 51.0609 58 50V18C58 16.9391 57.5786 15.9217 56.8284 15.1716C56.0783 14.4214 55.0609 14 54 14ZM24 12C24 11.4696 24.2107 10.9609 24.5858 10.5858C24.9609 10.2107 25.4696 10 26 10H38C38.5304 10 39.0391 10.2107 39.4142 10.5858C39.7893 10.9609 40 11.4696 40 12V14H24V12ZM54 18V36H10V18H54ZM54 50H10V40H54V50Z" fill="white"/>
</svg>
