<svg width="64" height="64" viewBox="0 0 64 64" fill="none" xmlns="http://www.w3.org/2000/svg">
<path opacity="0.2" d="M54 16L50.96 32.715C50.7926 33.6367 50.3069 34.4703 49.5878 35.0706C48.8687 35.671 47.9618 35.9999 47.025 36H15.6375L12 16H54Z" fill="#FD532E"/>
<path d="M55.535 14.7175C55.3473 14.4928 55.1125 14.3121 54.8472 14.1882C54.582 14.0642 54.2928 14 54 14H13.67L12.4475 7.285C12.2801 6.36334 11.7945 5.52968 11.0753 4.92935C10.3562 4.32903 9.44925 4.00014 8.5125 4H4C3.46957 4 2.96086 4.21071 2.58579 4.58579C2.21071 4.96086 2 5.46957 2 6C2 6.53043 2.21071 7.03914 2.58579 7.41421C2.96086 7.78929 3.46957 8 4 8H8.5L14.89 43.0725C15.0782 44.1126 15.5379 45.0846 16.2225 45.89C15.2776 46.7725 14.5956 47.8995 14.2521 49.146C13.9087 50.3925 13.9171 51.7097 14.2766 52.9517C14.636 54.1937 15.3324 55.3118 16.2886 56.1822C17.2447 57.0525 18.4232 57.641 19.6934 57.8825C20.9636 58.1239 22.2758 58.0089 23.4846 57.5501C24.6934 57.0913 25.7515 56.3066 26.5416 55.2832C27.3317 54.2597 27.8229 53.0374 27.9607 51.7519C28.0986 50.4663 27.8777 49.1677 27.3225 48H38.6775C38.2301 48.9367 37.9985 49.9619 38 51C38 52.3845 38.4105 53.7378 39.1797 54.889C39.9489 56.0401 41.0421 56.9373 42.3212 57.4672C43.6003 57.997 45.0078 58.1356 46.3656 57.8655C47.7235 57.5954 48.9708 56.9287 49.9497 55.9497C50.9287 54.9708 51.5954 53.7235 51.8655 52.3656C52.1356 51.0078 51.997 49.6003 51.4672 48.3212C50.9373 47.0421 50.0401 45.9489 48.889 45.1797C47.7378 44.4105 46.3845 44 45 44H20.7925C20.3241 43.9999 19.8706 43.8355 19.5111 43.5353C19.1515 43.2352 18.9087 42.8183 18.825 42.3575L18.0325 38H47.0325C48.4376 37.9998 49.7981 37.5065 50.8768 36.606C51.9554 35.7055 52.6838 34.455 52.935 33.0725L55.975 16.3575C56.0265 16.0686 56.0137 15.7719 55.9377 15.4885C55.8616 15.2051 55.7242 14.9418 55.535 14.7175ZM24 51C24 51.5933 23.8241 52.1734 23.4944 52.6667C23.1648 53.1601 22.6962 53.5446 22.1481 53.7716C21.5999 53.9987 20.9967 54.0581 20.4147 53.9424C19.8328 53.8266 19.2982 53.5409 18.8787 53.1213C18.4591 52.7018 18.1734 52.1672 18.0576 51.5853C17.9419 51.0033 18.0013 50.4001 18.2284 49.852C18.4554 49.3038 18.8399 48.8352 19.3333 48.5056C19.8266 48.1759 20.4067 48 21 48C21.7956 48 22.5587 48.3161 23.1213 48.8787C23.6839 49.4413 24 50.2043 24 51ZM48 51C48 51.5933 47.8241 52.1734 47.4944 52.6667C47.1648 53.1601 46.6962 53.5446 46.148 53.7716C45.5999 53.9987 44.9967 54.0581 44.4147 53.9424C43.8328 53.8266 43.2982 53.5409 42.8787 53.1213C42.4591 52.7018 42.1734 52.1672 42.0576 51.5853C41.9419 51.0033 42.0013 50.4001 42.2284 49.852C42.4554 49.3038 42.8399 48.8352 43.3333 48.5056C43.8266 48.1759 44.4067 48 45 48C45.7957 48 46.5587 48.3161 47.1213 48.8787C47.6839 49.4413 48 50.2043 48 51ZM49 32.3575C48.916 32.8196 48.6722 33.2374 48.311 33.5377C47.9499 33.838 47.4947 34.0017 47.025 34H17.305L14.3975 18H51.6025L49 32.3575Z" fill="#FD532E"/>
</svg>
