<svg width="64" height="64" viewBox="0 0 64 64" fill="none" xmlns="http://www.w3.org/2000/svg">
<path opacity="0.2" d="M59.9998 32.0003C59.9998 37.3046 57.8927 42.3917 54.142 46.1424C50.3912 49.8932 45.3041 52.0003 39.9998 52.0003H17.9998C16.0147 51.9979 14.0528 51.5733 12.2443 50.7547C10.4359 49.9362 8.82212 48.7424 7.5102 47.2526C6.19829 45.7628 5.2182 44.0111 4.63497 42.1136C4.05174 40.2161 3.8787 38.2163 4.12734 36.2468C4.37598 34.2773 5.04061 32.3832 6.07713 30.6902C7.11365 28.9972 8.49836 27.544 10.1394 26.427C11.7804 25.31 13.6402 24.5548 15.5954 24.2114C17.5505 23.868 19.5564 23.9443 21.4798 24.4353V24.4603C23.2299 20.1676 26.4169 16.6161 30.4959 14.4132C34.5748 12.2103 39.2923 11.4927 43.8418 12.3833C48.3912 13.2738 52.49 15.7171 55.4373 19.2953C58.3846 22.8736 59.9974 27.3645 59.9998 32.0003Z" fill="white"/>
<path d="M40.0002 10C35.9145 10.0031 31.9101 11.1428 28.435 13.2916C24.9599 15.4405 22.1511 18.5136 20.3227 22.1675C18.1476 21.8503 15.9305 21.9846 13.8096 22.5622C11.6887 23.1398 9.70962 24.1481 7.9957 25.5244C6.28178 26.9007 4.86982 28.6154 3.84791 30.5615C2.82599 32.5076 2.21604 34.6435 2.05609 36.8357C1.89614 39.028 2.18963 41.2298 2.91825 43.3036C3.64686 45.3774 4.79498 47.2789 6.29099 48.8894C7.78699 50.4999 9.5988 51.7848 11.6134 52.6641C13.628 53.5434 15.8021 53.9982 18.0002 54H40.0002C45.835 54 51.4308 51.6822 55.5566 47.5564C59.6824 43.4306 62.0002 37.8348 62.0002 32C62.0002 26.1652 59.6824 20.5695 55.5566 16.4437C51.4308 12.3179 45.835 10 40.0002 10ZM40.0002 50H18.0002C14.8176 50 11.7654 48.7357 9.51495 46.4853C7.26452 44.2348 6.00024 41.1826 6.00024 38C6.00024 34.8174 7.26452 31.7652 9.51495 29.5147C11.7654 27.2643 14.8176 26 18.0002 26C18.2752 26 18.5502 26 18.8227 26.0275C18.2758 27.9712 17.999 29.9809 18.0002 32C18.0002 32.5304 18.2109 33.0391 18.586 33.4142C18.9611 33.7893 19.4698 34 20.0002 34C20.5307 34 21.0394 33.7893 21.4144 33.4142C21.7895 33.0391 22.0002 32.5304 22.0002 32C22.0002 28.4399 23.0559 24.9598 25.0338 21.9997C27.0116 19.0397 29.8229 16.7325 33.1119 15.3702C36.401 14.0078 40.0202 13.6513 43.5119 14.3459C47.0035 15.0404 50.2108 16.7547 52.7282 19.2721C55.2455 21.7894 56.9598 24.9967 57.6544 28.4884C58.3489 31.98 57.9924 35.5992 56.6301 38.8883C55.2677 42.1774 52.9606 44.9886 50.0005 46.9665C47.0404 48.9443 43.5603 50 40.0002 50Z" fill="#FD532E"/>
</svg>
