<svg width="64" height="64" viewBox="0 0 64 64" fill="none" xmlns="http://www.w3.org/2000/svg">
<path opacity="0.2" d="M54.215 51.8925C53.1069 52.088 51.968 52.0136 50.8948 51.6754C49.8216 51.3373 48.8458 50.7454 48.05 49.95L37.5225 38H43C44.8981 38.0021 46.7737 37.5879 48.4945 36.7868C50.2153 35.9856 51.7396 34.8169 52.9599 33.363C54.1803 31.9091 55.067 30.2053 55.5577 28.3717C56.0484 26.538 56.1311 24.6191 55.8 22.75L59.89 43.7925C60.2097 45.619 59.7918 47.4977 58.7278 49.0163C57.6638 50.5349 56.0408 51.5693 54.215 51.8925Z" fill="#FD532E"/>
<path d="M44.0001 28H38.0001C37.4697 28 36.9609 27.7893 36.5859 27.4142C36.2108 27.0391 36.0001 26.5304 36.0001 26C36.0001 25.4696 36.2108 24.9609 36.5859 24.5858C36.9609 24.2107 37.4697 24 38.0001 24H44.0001C44.5305 24 45.0392 24.2107 45.4143 24.5858C45.7894 24.9609 46.0001 25.4696 46.0001 26C46.0001 26.5304 45.7894 27.0391 45.4143 27.4142C45.0392 27.7893 44.5305 28 44.0001 28ZM26.0001 24H24.0001V22C24.0001 21.4696 23.7894 20.9609 23.4143 20.5858C23.0392 20.2107 22.5305 20 22.0001 20C21.4697 20 20.9609 20.2107 20.5859 20.5858C20.2108 20.9609 20.0001 21.4696 20.0001 22V24H18.0001C17.4697 24 16.9609 24.2107 16.5859 24.5858C16.2108 24.9609 16.0001 25.4696 16.0001 26C16.0001 26.5304 16.2108 27.0391 16.5859 27.4142C16.9609 27.7893 17.4697 28 18.0001 28H20.0001V30C20.0001 30.5304 20.2108 31.0391 20.5859 31.4142C20.9609 31.7893 21.4697 32 22.0001 32C22.5305 32 23.0392 31.7893 23.4143 31.4142C23.7894 31.0391 24.0001 30.5304 24.0001 30V28H26.0001C26.5305 28 27.0392 27.7893 27.4143 27.4142C27.7894 27.0391 28.0001 26.5304 28.0001 26C28.0001 25.4696 27.7894 24.9609 27.4143 24.5858C27.0392 24.2107 26.5305 24 26.0001 24ZM60.3701 50.1625C59.6163 51.2389 58.636 52.1371 57.498 52.7942C56.36 53.4512 55.092 53.8511 53.7829 53.9657C52.4739 54.0803 51.1556 53.9068 49.9208 53.4575C48.6859 53.0083 47.5644 52.294 46.6351 51.365C46.6051 51.335 46.5751 51.305 46.5476 51.2725L36.6201 40H27.3701L17.4526 51.2725L17.3651 51.365C15.6756 53.0508 13.3868 53.9984 11.0001 54C9.68619 53.9995 8.38832 53.7113 7.19767 53.1558C6.00702 52.6002 4.95245 51.7906 4.10806 50.7839C3.26366 49.7773 2.64992 48.598 2.30994 47.3288C1.96995 46.0597 1.91198 44.7315 2.14009 43.4375C2.13889 43.4259 2.13889 43.4141 2.14009 43.4025L6.23259 22.38C6.84167 18.9127 8.65324 15.7709 11.349 13.5068C14.0447 11.2427 17.4522 10.001 20.9726 10H43.0001C46.5099 10.0056 49.9069 11.2402 52.6013 13.4893C55.2957 15.7385 57.1174 18.8602 57.7501 22.3125C57.7501 22.3275 57.7501 22.3425 57.7501 22.3575L61.8426 43.4C61.8438 43.4116 61.8438 43.4234 61.8426 43.435C62.0544 44.598 62.0333 45.7915 61.7805 46.9463C61.5278 48.1011 61.0484 49.1943 60.3701 50.1625ZM43.0001 36C45.9175 36 48.7154 34.8411 50.7783 32.7782C52.8412 30.7153 54.0001 27.9174 54.0001 25C54.0001 22.0826 52.8412 19.2847 50.7783 17.2218C48.7154 15.1589 45.9175 14 43.0001 14H20.9726C18.39 14.0023 15.8909 14.9153 13.915 16.5784C11.9392 18.2415 10.6131 20.5482 10.1701 23.0925V23.125L6.07509 44.1475C5.89408 45.1897 6.04829 46.2625 6.51554 47.2116C6.98278 48.1606 7.73898 48.937 8.67538 49.4291C9.61178 49.9212 10.6801 50.1036 11.7268 49.9501C12.7734 49.7967 13.7444 49.3152 14.5001 48.575L24.9801 36.6775C25.1677 36.4646 25.3985 36.2941 25.6572 36.1773C25.9158 36.0605 26.1963 36 26.4801 36H43.0001ZM57.9251 44.1475L55.7401 32.8975C54.3962 35.0675 52.5209 36.8587 50.2915 38.1016C48.0622 39.3444 45.5525 39.9979 43.0001 40H41.9501L49.5001 48.5775C50.0693 49.1312 50.7617 49.542 51.5205 49.7762C52.2793 50.0105 53.0828 50.0615 53.8651 49.925C55.1683 49.695 56.3272 48.9577 57.0877 47.8747C57.8483 46.7917 58.1485 45.4514 57.9226 44.1475H57.9251Z" fill="#FD532E"/>
</svg>
