<svg width="120" height="120" viewBox="0 0 120 120" fill="none" xmlns="http://www.w3.org/2000/svg">
<g id="Frame">
<path id="Vector" d="M53.5881 23.3438C52.4861 22.2395 51.1233 21.431 49.6259 20.9931C48.1285 20.5552 46.5449 20.502 45.0215 20.8385C43.4981 21.1749 42.0842 21.8902 40.9105 22.918C39.7368 23.9458 38.8413 25.2531 38.3069 26.7188L13.6975 94.4109C13.1888 95.8107 13.024 97.3122 13.2171 98.789C13.4102 100.266 13.9554 101.674 14.807 102.896C15.6585 104.118 16.7913 105.118 18.1098 105.81C19.4284 106.502 20.8941 106.868 22.3834 106.875C23.4774 106.873 24.5625 106.679 25.5897 106.303L93.2819 81.6937C94.749 81.1614 96.0581 80.2674 97.088 79.0947C98.1178 77.922 98.8352 76.5084 99.1735 74.9847C99.5119 73.4611 99.4604 71.8767 99.0238 70.3783C98.5871 68.8799 97.7795 67.5159 96.6756 66.4125L53.5881 23.3438ZM48.8397 85.8797L34.1209 71.1609L38.8788 58.0781L61.9225 81.1219L48.8397 85.8797ZM29.8928 82.8281L37.1725 90.1219L25.7116 94.2891L29.8928 82.8281ZM73.5944 76.875L43.1256 46.4062L47.8131 33.4781L86.5178 72.1875L73.5944 76.875ZM60.0006 18.75V7.5C60.0006 6.00816 60.5933 4.57742 61.6482 3.52252C62.703 2.46763 64.1338 1.875 65.6256 1.875C67.1175 1.875 68.5482 2.46763 69.6031 3.52252C70.658 4.57742 71.2506 6.00816 71.2506 7.5V18.75C71.2506 20.2418 70.658 21.6726 69.6031 22.7275C68.5482 23.7824 67.1175 24.375 65.6256 24.375C64.1338 24.375 62.703 23.7824 61.6482 22.7275C60.5933 21.6726 60.0006 20.2418 60.0006 18.75ZM114.601 57.8953C115.657 58.952 116.251 60.3853 116.251 61.8797C116.251 63.3741 115.657 64.8073 114.601 65.8641C113.544 66.9208 112.111 67.5145 110.616 67.5145C109.122 67.5145 107.689 66.9208 106.632 65.8641L99.1319 58.3641C98.0751 57.3073 97.4815 55.8741 97.4815 54.3797C97.4815 52.8853 98.0751 51.452 99.1319 50.3953C100.189 49.3386 101.622 48.7449 103.116 48.7449C104.611 48.7449 106.044 49.3386 107.101 50.3953L114.601 57.8953ZM114.277 39.0844L103.027 42.8344C101.612 43.3062 100.067 43.1964 98.7325 42.5292C97.3981 41.8619 96.3834 40.6919 95.9116 39.2766C95.4398 37.8612 95.5496 36.3163 96.2168 34.9819C96.884 33.6475 98.054 32.6327 99.4694 32.1609L110.719 28.4109C112.135 27.9391 113.68 28.0489 115.014 28.7162C116.348 29.3834 117.363 30.5534 117.835 31.9687C118.307 33.3841 118.197 34.929 117.53 36.2634C116.863 37.5978 115.693 38.6126 114.277 39.0844ZM73.4069 30.9047C74.9209 22.2516 81.2772 16.875 90.0006 16.875C93.0241 16.875 94.0741 15.7078 94.6881 14.5688C95.2345 13.5189 95.554 12.3658 95.6256 11.1844V11.25C95.6256 9.75816 96.2183 8.32742 97.2732 7.27252C98.328 6.21763 99.7588 5.625 101.251 5.625C102.742 5.625 104.173 6.21763 105.228 7.27252C106.283 8.32742 106.876 9.75816 106.876 11.25C106.876 18.0328 102.38 28.125 90.0006 28.125C87.685 28.125 85.2147 28.6828 84.4881 32.8406C84.2609 34.1444 83.5813 35.3264 82.5688 36.1786C81.5562 37.0308 80.2756 37.4987 78.9522 37.5C78.6254 37.4994 78.2992 37.4712 77.9772 37.4156C76.5077 37.1583 75.2007 36.3277 74.3436 35.1067C73.4865 33.8857 73.1496 32.3742 73.4069 30.9047Z" fill="#FD532E"/>
</g>
</svg>
