<svg width="52" height="66" viewBox="0 0 52 66" fill="none" xmlns="http://www.w3.org/2000/svg">
<g id="ifx-payments-logo 1">
<path id="Vector" fill-rule="evenodd" clip-rule="evenodd" d="M2.5 52.3923H49.5643V2.74951H2.5V52.3923ZM5.20076 49.5439H46.8641V5.5986H5.20076V49.5439Z" fill="#F9F9FF"/>
<path id="Vector_2" fill-rule="evenodd" clip-rule="evenodd" d="M11.5137 33.5285H14.3788V18.0474H11.5137V33.5285Z" fill="#F9F9FF"/>
<path id="Vector_3" fill-rule="evenodd" clip-rule="evenodd" d="M40.5519 11.4727H37.3153L31.1872 23.0511L28.6312 18.0507L17.6836 18.0479V33.5283H20.5488V27.2446H26.3415V24.5484H20.5488V20.744H26.8973L29.6418 25.5957L17.6836 46.7405H20.9609L31.1872 28.1395L34.0321 33.5318H37.3094L32.7334 25.5957L40.5519 11.4727Z" fill="#F9F9FF"/>
<path id="Vector_4" fill-rule="evenodd" clip-rule="evenodd" d="M4.88188 60.7878H3.719V63.187H2.53906V56.8125H4.88188C6.13794 56.8125 6.87687 57.7165 6.87687 58.8005C6.87687 59.8832 6.13794 60.7878 4.88188 60.7878ZM4.82173 57.9228H3.71856V59.6685H4.82173C5.35656 59.6685 5.69651 59.3189 5.69651 58.8005C5.69651 58.2806 5.35656 57.9228 4.82173 57.9228Z" fill="#F9F9FF"/>
<path id="Vector_5" fill-rule="evenodd" clip-rule="evenodd" d="M9.74336 56.813L7.54492 63.1875H8.77605L9.14092 62.0591H11.2882L11.6445 63.1875H12.8756L10.6687 56.813H9.74336ZM10.2367 58.6923L10.975 61.0119H9.4722L10.2367 58.6923Z" fill="#F9F9FF"/>
<path id="Vector_6" fill-rule="evenodd" clip-rule="evenodd" d="M16.8922 56.8135L15.7799 59.3829L14.6511 56.8135H13.3701L15.1866 60.5735V63.188H16.358V60.5735L18.1739 56.8135H16.8922Z" fill="#F9F9FF"/>
<path id="Vector_7" fill-rule="evenodd" clip-rule="evenodd" d="M23.9772 56.813L22.4069 60.2594L20.8279 56.813H19.665V63.1875H20.845V59.4717L22.0078 61.8889H22.8058L23.9601 59.4717V63.1875H25.1402V56.813H23.9772Z" fill="#F9F9FF"/>
<path id="Vector_8" fill-rule="evenodd" clip-rule="evenodd" d="M27.3135 56.8135V63.188H31.2942V62.0777H28.4934V60.5286H30.8782V59.4182H28.4934V57.9238H31.2942V56.8135H27.3135Z" fill="#F9F9FF"/>
<path id="Vector_9" fill-rule="evenodd" clip-rule="evenodd" d="M36.657 56.8135V60.7161L34.263 56.8135H33.2109V63.188H34.3909V59.2756L36.7843 63.188H37.8369V56.8135H36.657Z" fill="#F9F9FF"/>
<path id="Vector_10" fill-rule="evenodd" clip-rule="evenodd" d="M39.5586 56.8135V57.9238H41.1376V63.188H42.3175V57.9238H43.8958V56.8135H39.5586Z" fill="#F9F9FF"/>
<path id="Vector_11" fill-rule="evenodd" clip-rule="evenodd" d="M47.2812 63.2405C46.3644 63.2405 45.6682 63.035 45.0742 62.3989L45.8381 61.5932C46.2201 61.996 46.7378 62.1303 47.2897 62.1303C47.9945 62.1303 48.368 61.8437 48.368 61.3335C48.368 61.119 48.3083 60.9397 48.1809 60.8054C48.0622 60.6891 47.9434 60.6352 47.6382 60.5908L46.9163 60.4739C46.3815 60.3936 46.0166 60.2233 45.7449 59.9457C45.4562 59.6501 45.3118 59.2293 45.3118 58.6921C45.3118 57.5555 46.1098 56.7588 47.4171 56.7588C48.2492 56.7588 48.8516 56.9734 49.3694 57.5015L48.6226 58.281C48.2492 57.8954 47.7826 57.8421 47.3836 57.8421C46.7549 57.8421 46.4583 58.209 46.4583 58.6479C46.4583 58.8181 46.5003 58.9787 46.6276 59.1047C46.7464 59.2209 46.9248 59.3103 47.1795 59.3462L47.9007 59.4625C48.4526 59.5428 48.7925 59.6951 49.0551 59.9637C49.3779 60.2773 49.5223 60.7334 49.5223 61.3066C49.5223 62.5422 48.5543 63.2405 47.2812 63.2405Z" fill="#F9F9FF"/>
</g>
</svg>
