<svg width="178" height="26" viewBox="0 0 178 26" fill="none" xmlns="http://www.w3.org/2000/svg">
<g id="65f9e442de4969586d032700_logotipo-facilitapay-2 1">
<path id="Vector" d="M160.192 20.5417V13.3542L150.847 5.31761H155.644L162.073 10.7477L168.628 5.31761H173.155L163.768 13.3937V20.5417H160.213H160.192ZM140.242 14.4205H147.953L144.087 8.41772L140.221 14.4205H140.242ZM149.607 17.0269H138.567L136.293 20.5219H132.199L141.461 6.46287C141.751 6.02847 142.081 5.67304 142.475 5.39659C142.867 5.12015 143.425 4.98193 144.149 4.98193C144.872 4.98193 145.41 5.12015 145.804 5.39659C146.196 5.67304 146.526 6.02847 146.816 6.46287L156.016 20.5219H151.902L149.586 17.0269H149.607ZM130.132 10.3528C130.132 9.54322 129.946 8.9706 129.574 8.67441C129.201 8.37822 128.54 8.22026 127.589 8.22026H118.472V13.4134H127.631C128.561 13.4134 129.201 13.2752 129.574 12.9988C129.925 12.7223 130.112 12.1892 130.112 11.3796V10.3331L130.132 10.3528ZM118.492 16.1778V20.5219H114.937V5.29787H127.692C128.829 5.29787 129.78 5.37685 130.545 5.55456C131.31 5.73227 131.93 6.00872 132.386 6.40363C132.86 6.79855 133.192 7.31195 133.377 7.92407C133.564 8.55594 133.667 9.30628 133.667 10.1948V11.5178C133.667 12.4261 133.564 13.1765 133.377 13.7688C133.192 14.3612 132.86 14.8351 132.406 15.1905C131.951 15.546 131.331 15.8027 130.566 15.9409C129.802 16.0791 128.829 16.1581 127.672 16.1581H118.472L118.492 16.1778Z" fill="white"/>
<path id="Vector_2" fill-rule="evenodd" clip-rule="evenodd" d="M97.6199 17.5742L95.9889 20.4617H92.4355L100.477 6.47038C100.716 6.04369 101.007 5.68646 101.35 5.40862C101.693 5.13078 102.171 4.98193 102.815 4.98193C103.459 4.98193 103.916 5.12085 104.259 5.40862C104.602 5.68646 104.893 6.04369 105.132 6.47038L113.131 20.4617H109.557L108.082 17.9017L102.752 8.39543L97.6199 17.5742Z" fill="white"/>
<path id="Vector_3" fill-rule="evenodd" clip-rule="evenodd" d="M85.8673 20.4619V8.22692H80.0596V5.30957H94.7815V8.22692H88.9737V20.4619H85.8673Z" fill="white"/>
<path id="Vector_4" d="M78.4402 5.30957H75.3545V20.4521H78.4402V5.30957Z" fill="white"/>
<path id="Vector_5" fill-rule="evenodd" clip-rule="evenodd" d="M65.245 20.4619C64.2269 20.4619 63.3853 20.3726 62.71 20.1841C62.0347 19.9955 61.4944 19.7078 61.0893 19.291C60.6841 18.8842 60.3931 18.3483 60.2269 17.6934C60.0607 17.0385 59.9775 16.2248 59.9775 15.2623V5.30957H63.0424V15.1234C63.0424 15.5699 63.0839 15.9371 63.1567 16.2447C63.2295 16.5523 63.3645 16.8003 63.5515 16.9988C63.7385 17.1973 63.9983 17.3461 64.31 17.4355C64.6321 17.5247 65.0268 17.5644 65.5152 17.5644H73.7332V20.452H65.245V20.4619Z" fill="white"/>
<path id="Vector_6" d="M57.5974 5.30957H54.5117V20.4521H57.5974V5.30957Z" fill="white"/>
<path id="Vector_7" fill-rule="evenodd" clip-rule="evenodd" d="M42.8964 20.4619C41.8781 20.4619 41.0366 20.3726 40.3613 20.1841C39.686 19.9955 39.1458 19.7078 38.7405 19.291C38.3353 18.8842 38.0445 18.3483 37.8782 17.6934C37.712 17.0385 37.6289 16.2248 37.6289 15.2623V10.5092C37.6289 9.56653 37.712 8.75284 37.8782 8.088C38.0445 7.42316 38.3353 6.88732 38.7405 6.48048C39.1458 6.07364 39.686 5.77595 40.3613 5.58741C41.0366 5.39888 41.8886 5.30957 42.8964 5.30957H52.4961V8.217H43.0418C42.5639 8.217 42.1794 8.25669 41.8781 8.33608C41.5769 8.41546 41.338 8.55438 41.1613 8.74291C40.9846 8.93145 40.86 9.18945 40.7977 9.50698C40.7249 9.82452 40.6938 10.2115 40.6938 10.6779V15.1234C40.6938 15.5997 40.7249 15.9867 40.7977 16.3042C40.8704 16.6118 40.9846 16.8698 41.1613 17.0584C41.338 17.2469 41.5769 17.3858 41.8886 17.4552C42.2002 17.5247 42.595 17.5644 43.0625 17.5644H52.4961V20.452H42.8964V20.4619Z" fill="white"/>
<path id="Vector_8" fill-rule="evenodd" clip-rule="evenodd" d="M21.6522 17.5742L20.021 20.4617H16.4678L24.5093 6.47038C24.7482 6.04369 25.0391 5.68646 25.3819 5.40862C25.7247 5.13078 26.2027 4.98193 26.8469 4.98193C27.4911 4.98193 27.9482 5.12085 28.291 5.40862C28.6339 5.68646 28.9247 6.04369 29.1637 6.47038L37.1636 20.4617H33.5897L32.1143 17.9017L26.7845 8.39543L21.6522 17.5742Z" fill="white"/>
<path id="Vector_9" fill-rule="evenodd" clip-rule="evenodd" d="M7.3022 14.7761V20.4619H4.2373V10.5092C4.2373 9.56653 4.32042 8.75284 4.48665 8.088C4.65288 7.42316 4.94379 6.88732 5.34898 6.48048C5.75417 6.07364 6.29442 5.77595 6.96973 5.58741C7.64505 5.39888 8.49699 5.30957 9.50476 5.30957H18.9799V8.217H9.57749C8.72556 8.217 8.13335 8.40554 7.7905 8.79253C7.44765 9.17953 7.28142 9.8146 7.28142 10.6977V11.8984H15.1047V14.7662H7.28142L7.3022 14.7761Z" fill="white"/>
</g>
</svg>
