<svg width="50" height="50" viewBox="0 0 50 50" fill="none" xmlns="http://www.w3.org/2000/svg">
<g id="amazonwebservices 1" clip-path="url(#clip0_349_12179)">
<path id="Vector" d="M14.3626 21.0107C14.3626 21.612 14.4276 22.0974 14.5413 22.4529C14.6713 22.8104 14.8338 23.2004 15.0613 23.6229C15.1426 23.7509 15.1751 23.8809 15.1751 23.9946C15.1751 24.1571 15.0776 24.3196 14.8663 24.4821L13.8446 25.1626C13.7211 25.2516 13.5742 25.3025 13.4221 25.3088C13.2596 25.3088 13.0971 25.2276 12.9367 25.0813C12.7184 24.8466 12.5232 24.5916 12.3537 24.3196C12.1721 24.0081 12.004 23.6889 11.8499 23.3629C10.5865 24.8538 8.99603 25.5993 7.08259 25.5993C5.72165 25.5993 4.63493 25.2113 3.84071 24.4334C3.04649 23.6534 2.64228 22.6174 2.64228 21.3195C2.64228 19.9423 3.12774 18.821 4.11696 17.9801C5.10618 17.1371 6.41837 16.7146 8.08806 16.7146C8.64056 16.7146 9.20728 16.7634 9.80649 16.8446C10.4077 16.9259 11.0252 17.0559 11.6712 17.2021V16.0179C11.6712 14.7849 11.4132 13.9257 10.9095 13.424C10.3915 12.9202 9.51603 12.6785 8.26884 12.6785C7.70009 12.6785 7.11509 12.7415 6.51587 12.8877C5.91665 13.034 5.33165 13.2127 4.76493 13.4402C4.58015 13.523 4.39017 13.5935 4.19618 13.6515C4.11264 13.6784 4.02589 13.6941 3.93821 13.6982C3.71071 13.6982 3.59696 13.5357 3.59696 13.1965V12.4023C3.59696 12.1423 3.62946 11.9473 3.71071 11.8335C3.83341 11.686 3.98935 11.5698 4.16571 11.4943C4.73243 11.2018 5.4129 10.958 6.20712 10.763C7.03388 10.5514 7.88467 10.4483 8.73806 10.4563C10.6677 10.4563 12.0774 10.8951 12.9854 11.7705C13.8771 12.644 14.3301 13.9745 14.3301 15.7579V21.0107H14.3626ZM7.78134 23.4766C8.31556 23.4766 8.86602 23.3791 9.45103 23.1841C10.034 22.9891 10.554 22.6337 10.9907 22.1482C11.2507 21.8395 11.4457 21.4982 11.5432 21.1082C11.6387 20.7202 11.7057 20.249 11.7057 19.6985V19.018C11.2136 18.8981 10.7152 18.8059 10.2127 18.7418C9.70746 18.6776 9.19865 18.645 8.68931 18.6443C7.60259 18.6443 6.80837 18.8555 6.27212 19.2943C5.7379 19.731 5.47993 20.3465 5.47993 21.157C5.47993 21.9187 5.6729 22.4874 6.07915 22.8754C6.46712 23.2816 7.03384 23.4766 7.78134 23.4766ZM20.8016 25.2276C20.5091 25.2276 20.3141 25.1788 20.1842 25.0651C20.0541 24.9676 19.9404 24.7401 19.8429 24.4334L16.0343 11.8985C15.9602 11.6883 15.9111 11.4702 15.8881 11.2485C15.8881 10.9885 16.0181 10.8423 16.276 10.8423H17.8665C18.1732 10.8423 18.3845 10.893 18.4962 11.0048C18.6282 11.1023 18.7257 11.3298 18.8212 11.6385L21.5471 22.3716L24.076 11.6385C24.1573 11.3135 24.2548 11.1023 24.3827 11.0048C24.5776 10.8853 24.8045 10.8285 25.0327 10.8423H26.3287C26.6374 10.8423 26.8487 10.893 26.9787 11.0048C27.1066 11.1023 27.2224 11.3298 27.2854 11.6385L29.8468 22.5016L32.652 11.6385C32.7495 11.3135 32.8632 11.1023 32.977 11.0048C33.1651 10.8853 33.3862 10.8284 33.6087 10.8423H35.1179C35.3759 10.8423 35.5242 10.9743 35.5242 11.2485C35.5242 11.3298 35.5059 11.411 35.4896 11.5085C35.4642 11.6471 35.4261 11.7831 35.3759 11.9148L31.4698 24.4476C31.3723 24.7726 31.2585 24.9818 31.1285 25.0793C30.9455 25.1967 30.7302 25.2536 30.5131 25.2418H29.1176C28.8109 25.2418 28.5996 25.193 28.4676 25.0793C28.3396 24.9655 28.2259 24.7543 28.1629 24.4293L25.6482 13.9724L23.1498 24.413C23.0685 24.738 22.9731 24.9493 22.8451 25.063C22.7131 25.1768 22.4856 25.2255 22.1951 25.2255L20.8016 25.2276ZM41.6341 25.6643C40.7912 25.6643 39.9482 25.5668 39.1377 25.3738C38.3273 25.1788 37.6956 24.9676 37.2731 24.7238C37.0131 24.5796 36.8363 24.4171 36.7713 24.2709C36.708 24.1275 36.6748 23.9726 36.6738 23.8159V22.9891C36.6738 22.6499 36.8038 22.4874 37.0456 22.4874C37.1431 22.4874 37.2406 22.5037 37.3381 22.5362C37.4356 22.5687 37.5818 22.6337 37.7443 22.6987C38.2948 22.9424 38.894 23.1354 39.5277 23.2654C40.1757 23.3954 40.8074 23.4604 41.4574 23.4604C42.4771 23.4604 43.2734 23.2816 43.8238 22.9241C44.0877 22.7647 44.3047 22.5383 44.4528 22.2679C44.6008 21.9974 44.6747 21.6927 44.6668 21.3845C44.6727 21.1757 44.6372 20.9679 44.5622 20.7729C44.4873 20.578 44.3744 20.3999 44.2301 20.249C43.9376 19.9423 43.3851 19.666 42.5909 19.406L40.2407 18.6748C39.0565 18.303 38.181 17.7526 37.6468 17.0234C37.124 16.3504 36.8383 15.5234 36.8343 14.6712C36.8343 13.9907 36.9826 13.3915 37.2731 12.8715C37.5656 12.3535 37.9535 11.8985 38.441 11.543C38.9285 11.1693 39.477 10.893 40.127 10.7001C40.777 10.5051 41.4574 10.4238 42.1704 10.4238C42.5259 10.4238 42.8996 10.4401 43.2571 10.4888C43.6288 10.5376 43.9681 10.6026 44.3093 10.6676C44.6343 10.7488 44.9431 10.8301 45.2335 10.9255C45.526 11.023 45.7535 11.1205 45.916 11.218C46.1074 11.3144 46.2742 11.4534 46.4035 11.6243C46.5082 11.782 46.5588 11.9695 46.5477 12.1585V12.9202C46.5477 13.2615 46.4177 13.4402 46.174 13.4402C45.9582 13.4155 45.7492 13.3493 45.5585 13.2452C44.579 12.8125 43.5174 12.597 42.4467 12.6135C41.5224 12.6135 40.7912 12.7577 40.2895 13.0665C39.7857 13.3752 39.5277 13.8445 39.5277 14.5087C39.5277 14.9637 39.6902 15.3537 40.0152 15.6604C40.3382 15.9691 40.9374 16.2779 41.7966 16.5541L44.1001 17.2813C45.266 17.6551 46.111 18.1751 46.6127 18.8393C47.1145 19.5035 47.3582 20.2652 47.3582 21.1082C47.3582 21.8049 47.212 22.4387 46.9377 22.9891C46.6452 23.5416 46.2552 24.0271 45.7535 24.4171C45.2498 24.8234 44.6506 25.1138 43.9538 25.3251C43.2226 25.5505 42.4629 25.6643 41.6341 25.6643ZM44.6993 33.5455C39.3652 37.4862 31.614 39.5763 24.9515 39.5763C15.6118 39.5763 7.19837 36.1232 0.840557 30.3829C0.338838 29.9299 0.791806 29.3124 1.39306 29.6699C8.26681 33.6573 16.7473 36.0745 25.5182 36.0745C31.4373 36.0745 37.9373 34.8415 43.9213 32.3126C44.8131 31.9063 45.5748 32.8955 44.6993 33.5455ZM46.9215 31.0146C46.239 30.1412 42.4121 30.5941 40.6774 30.8054C40.1595 30.8704 40.0782 30.4154 40.5495 30.0741C43.5963 27.9352 48.6074 28.5507 49.1904 29.2637C49.7734 29.9949 49.0279 35.004 46.174 37.4029C45.7373 37.7766 45.3148 37.5816 45.5098 37.0962C46.1598 35.4915 47.602 31.8759 46.9215 31.0146Z" fill="white"/>
</g>
<defs>
<clipPath id="clip0_349_12179">
<rect width="48.75" height="48.75" fill="white" transform="translate(0.625 0.625)"/>
</clipPath>
</defs>
</svg>
