<svg width="48" height="58" viewBox="0 0 48 58" fill="none" xmlns="http://www.w3.org/2000/svg">
<g clip-path="url(#clip0_349_12106)">
<path d="M47.2504 50.9489C47.2504 52.8475 46.4156 53.9511 44.7828 54.5382C38.4368 56.815 30.9223 57.9871 23.7759 57.9871C16.626 57.9871 9.11148 56.8139 2.76666 54.5382C1.13385 53.9511 0.297852 52.8475 0.297852 50.9489V0.513672H47.2504V50.9489Z" fill="white"/>
<path d="M12.8902 31.2491C6.38862 27.4696 4.24399 25.7966 4.05874 23.3174C4.02787 22.8154 4.15137 21.9651 4.37818 21.3591L3.76543 20.981C3.27618 21.7086 2.96387 22.665 2.96387 23.5419C2.96387 24.975 3.4543 26.0586 4.05874 26.9245C4.97193 28.2337 5.93262 29.0575 8.30049 30.7117C10.8512 32.4931 12.5921 34.5731 13.5944 36.7514H13.9566V34.28C17.4015 36.1024 20.4415 37.8141 21.9366 40.8771H22.2976C21.7121 37.7035 19.7836 35.2564 12.8902 31.2491Z" fill="#1F1F22"/>
<path d="M42.8356 40.8819H42.3914C42.3914 38.624 40.1673 38.0058 37.8386 38.0058H30.5568C30.7919 39.1204 30.9 40.4241 30.7207 41.656H30.3573C29.684 36.5783 26.6036 34.066 22.2954 31.3712V33.6845H21.9332C20.7873 31.2982 18.2733 29.0624 15.8936 27.4745C15.2606 27.0543 14.6016 26.6186 13.952 26.1885V28.6776H13.5898C12.5804 26.2073 10.7481 24.3639 8.13444 22.1668C5.30938 19.8004 4.17294 18.3839 3.51032 16.7552C3.10894 15.7688 2.99732 14.9715 2.98188 13.889C2.95694 11.9528 4.01025 10.2035 5.31888 9.55106V10.4888C4.6705 11.2882 4.33444 12.3044 4.33207 13.3339C4.3285 14.286 4.57313 15.3431 5.08138 16.2432C6.67144 19.0607 12.0271 22.5195 15.4257 24.6459C26.0004 31.2496 28.1118 32.4018 29.8669 35.906C30.0628 36.2963 30.2576 36.8204 30.4203 37.4319C31.9474 37.2119 37.4894 36.4246 38.5095 36.2742C38.7078 36.2443 39.1151 36.199 39.3265 36.1857C40.2824 35.624 41.0258 34.9075 41.6778 34.014L37.6284 33.721C37.4182 34.1533 37.2128 34.5182 37.0311 34.809H36.6986C36.8102 34.4264 36.9064 34.0483 36.9907 33.6756L35.9528 33.6071V33.3992L37.075 33.2698C37.2888 32.2027 37.3921 31.1921 37.4123 30.2489L32.3048 29.9779C32.2799 30.4667 32.2751 30.9256 32.2929 31.3535H31.9676C31.8559 30.878 31.7704 30.407 31.7063 29.9481L30.5877 29.8862V29.5699L31.6517 29.5157C31.5021 28.2563 31.4926 27.083 31.546 26.0735L28.5618 25.9485C28.7008 26.194 28.8468 26.4384 28.9489 26.7093C29.5949 28.3867 29.4406 30.3506 29.2292 31.2562H28.867C28.8136 30.2101 28.4371 28.9264 28.0773 28.1457C27.252 26.3333 25.4007 24.73 22.2942 22.8723V25.1877H21.932C20.9001 22.1469 18.3279 20.4539 14.5054 18.6261C11.3514 17.1189 10.3717 15.3022 10.5498 12.4913L11.6162 13.0796C11.8881 15.7069 14.0565 17.2262 16.3282 17.2107C17.6653 17.1997 18.9181 17.0338 20.127 16.8104C21.875 16.4798 23.4924 16.2023 24.8426 16.6457V15.0943H23.7809C23.4009 15.3984 22.6314 15.7511 21.4998 15.7699C20.2564 15.7898 17.9028 15.123 17.9028 12.6738C17.9028 10.5463 19.8349 10.2057 21.4083 10.2057C22.2538 10.2057 23.6551 10.178 24.1301 10.1548C24.4804 10.1327 24.744 10.084 24.9162 9.92481C25.0943 9.76227 25.1478 9.59419 25.1881 9.37635C25.238 9.11207 25.238 8.84337 25.238 8.38669V6.83198H17.9432V9.52453L15.1823 8.54592V7.90126H16.5028V6.83198H11.5829V4.59832H9.90619C9.01082 4.59832 7.9765 5.18438 7.90169 6.31779C7.834 7.40477 8.35888 8.32145 9.56182 8.32145H9.77675V9.62294H9.56182C7.454 9.62294 5.8675 8.15005 5.8675 6.19505C5.8675 4.15602 7.73069 2.60352 9.98575 2.60352H13.5435V4.83828H27.3838V8.14121C27.3838 8.69852 27.3494 9.44491 27.2924 9.91597C27.2496 10.261 27.1202 10.8791 26.4219 11.3767C25.998 11.6752 25.3615 11.7958 24.3308 11.8002C23.9923 11.8013 23.0114 11.7869 21.8358 11.7184C20.2588 11.6244 19.8099 12.1927 19.7458 12.7191C19.7328 12.8297 19.7328 12.9369 19.7482 13.0398C20.4868 12.509 21.5318 12.1319 22.7169 12.4814C24.8046 13.0928 25.4019 13.1459 26.4896 12.3509L26.6001 12.5776C26.4813 12.7467 26.2735 12.99 25.9683 13.2056H26.9765V18.2944L30.1163 16.5406H38.9323C38.9323 16.5406 42.6563 18.353 43.2678 18.6515C43.8093 18.9169 44.0219 19.2376 44.105 19.7076C44.1774 20.1001 44.0658 20.5977 43.8604 20.9162C43.7309 21.1152 42.718 22.66 42.1848 23.4849C43.6823 24.9942 44.6928 27.1063 44.6928 29.4582C44.6928 31.5902 43.8461 34.3391 41.0947 36.3826C42.3059 36.7519 43.0814 37.3667 43.6906 38.175L42.8356 40.8819ZM23.1813 13.4799C21.9427 13.2266 21.2516 13.3693 20.5403 14.0007C20.8894 14.1555 21.3252 14.2395 21.8061 14.2097C22.5032 14.1632 22.9331 13.7762 23.1813 13.4799ZM22.4676 20.8122L25.9564 18.865C25.2701 18.5498 24.5124 18.3475 23.6147 18.3375C22.4118 18.3176 20.3823 18.8307 19.4026 18.9733C19.8408 19.2509 21.3964 20.1775 22.4676 20.8122ZM38.0393 21.019L38.5226 20.3843L37.7744 19.4565L37.8991 19.2498L40.0022 20.3058L39.5426 21.6017C39.8834 21.7543 40.1958 21.9445 40.6102 22.2011L41.9711 20.12L38.4478 18.4061H30.6661L24.3486 21.9445C25.5337 22.7119 26.6286 23.5413 27.404 24.3772C29.095 22.0827 32.0697 20.622 35.0159 20.622C35.9789 20.6231 37.0999 20.7193 38.0393 21.019ZM37.4063 29.2327C37.3636 28.1501 37.2199 27.1704 37.0239 26.3068L32.8998 26.1332C32.6183 27.302 32.4307 28.442 32.3452 29.4837L37.4063 29.2327ZM38.7933 26.3831C38.9251 27.375 38.9418 28.3027 38.8717 29.1597L42.9579 28.9606C42.8534 28.0959 42.5886 27.2788 42.1943 26.529L38.7933 26.3831ZM36.7128 25.138C36.2853 23.7635 35.7759 22.8092 35.5075 22.3603C35.3365 22.3503 35.1619 22.347 34.9898 22.347C34.7012 22.347 34.4126 22.3813 34.1336 22.4089C33.7215 23.3699 33.3854 24.3396 33.1123 25.3238L36.7128 25.138ZM37.8457 22.8314C38.1509 23.5954 38.3801 24.3319 38.5475 25.0429L41.0436 24.9157C40.1863 23.9957 39.0902 23.2737 37.8457 22.8314ZM42.4401 32.6451C42.7323 31.9827 42.9187 31.3469 42.9745 30.5419L38.728 30.3174C38.5344 31.4254 38.2186 32.3885 37.8789 33.1769L42.4401 32.6451ZM31.9676 22.9873C30.5461 23.58 29.5653 24.3861 28.6889 25.5427L31.5959 25.4012C31.7004 24.1992 31.8702 23.3997 31.9676 22.9873Z" fill="#1F1F22"/>
<path d="M26.5753 46.7224C27.7604 46.5433 28.8909 45.6852 28.8909 44.3881C28.8909 43.2193 28.3565 41.9355 24.661 41.9355H18.4219V42.0295C18.6107 42.0837 18.9111 42.2264 19.1071 42.4033C19.5298 42.7914 19.6711 43.3653 19.6878 44.1305V52.8252H24.8569C27.6998 52.8252 29.7578 51.8178 29.7578 49.5012C29.7589 47.6203 28.1855 46.8208 26.5753 46.7224ZM23.9153 42.9717C25.2381 42.9717 26.1347 43.2404 26.1347 44.554C26.1347 45.9561 24.9341 46.342 23.5626 46.342H22.381V42.9717H23.9153ZM24.0494 51.7968H22.381V47.3494H23.9734C26.1608 47.3494 26.9992 47.9587 26.9992 49.4835C26.998 51.1322 25.9019 51.7968 24.0494 51.7968Z" fill="#1F1F22"/>
<path d="M13.8214 52.8231H17.1903L12.8892 47.7045C14.6123 47.2743 15.9031 46.3952 15.9031 44.7996C15.9031 42.9276 14.6978 41.9346 11.5509 41.9346H5.04102V42.0286C5.28208 42.106 5.54927 42.2508 5.7262 42.4112C6.18102 42.8302 6.31758 43.4694 6.31758 44.3319V52.8231H9.01914V47.9986H10.0048L13.8214 52.8231ZM9.02033 42.9718H10.8384C12.3548 42.9718 13.1457 43.3853 13.1457 44.8826C13.1457 46.2205 12.1126 47.0145 10.4513 47.0145H9.02033V42.9718Z" fill="#1F1F22"/>
<path d="M40.6844 43.4286C41.4053 43.8067 41.6261 44.3077 41.6321 44.3121C41.6653 44.3486 41.7437 44.3364 41.7437 44.3364L42.3315 42.4732C42.3315 42.4732 41.2758 41.7666 38.7631 41.7666C34.9607 41.7666 32.1143 43.5502 32.1143 47.4536C32.1143 51.8512 35.5046 52.9935 38.4959 52.9935C41.2758 52.9935 42.3707 52.1686 42.3707 52.1686V50.8925C42.3707 50.8925 41.3863 51.7462 39.2784 51.7462C37.5411 51.7462 34.9833 51.0053 34.9322 47.3916C34.8799 44.0511 36.4439 42.9641 38.5363 42.9641C39.7048 42.9641 40.2878 43.2196 40.6844 43.4286Z" fill="#1F1F22"/>
</g>
<defs>
<clipPath id="clip0_349_12106">
<rect width="47.5" height="57.5" fill="white" transform="translate(0 0.5)"/>
</clipPath>
</defs>
</svg>
