<svg width="106" height="33" viewBox="0 0 106 33" fill="none" xmlns="http://www.w3.org/2000/svg">
<g id="apaylo-logo-01 1">
<g id="Group">
<path id="Vector" d="M83.5848 2.52344C83.7098 2.60901 83.7098 2.73348 83.7098 2.86962C83.7098 9.59487 83.7098 16.3201 83.7098 23.0493C83.7098 23.446 83.702 23.8389 83.7137 24.2356C83.7176 24.4067 83.6551 24.4962 83.4911 24.5468C82.3426 24.8852 81.1903 25.2236 80.0457 25.5698C79.9442 25.6009 79.8426 25.5853 79.745 25.6281C79.6746 25.6592 79.6395 25.5659 79.6121 25.5153C79.5692 25.4375 79.5848 25.3519 79.5848 25.2664C79.5848 18.1794 79.5848 11.0885 79.5848 4.00151C79.5848 3.7059 79.6043 3.68256 79.8856 3.59699C81.0301 3.2547 82.1746 2.9124 83.3192 2.57011C83.3504 2.56233 83.3856 2.56233 83.3973 2.52733C83.452 2.52344 83.5184 2.52344 83.5848 2.52344Z" fill="white"/>
<path id="Vector_2" d="M27.1309 23.1347C27.1309 23.2047 27.1309 23.2708 27.1309 23.3408C27.1309 25.0639 27.1309 26.7832 27.1309 28.5063C27.1309 28.8058 27.1309 28.8097 26.834 28.8992C25.6777 29.2492 24.5215 29.5993 23.3652 29.9455C23.0957 30.0272 23.0059 29.9571 23.0059 29.6732C23.0059 23.2124 23.0059 16.7556 23.002 10.2948C23.002 10.0654 23.123 9.99145 23.3027 9.94088C24.4316 9.61415 25.5605 9.2913 26.6777 8.93345C26.7207 8.9179 26.7676 8.91401 26.8105 8.90623C27.041 8.85177 27.1309 8.9179 27.1309 9.15128C27.1348 9.68027 27.1309 10.2132 27.1348 10.7422C27.1348 10.8044 27.1113 10.8666 27.166 10.9444C27.3691 10.6644 27.584 10.4076 27.8301 10.182C28.6543 9.42744 29.6348 8.96846 30.7129 8.70007C31.4473 8.51726 32.1973 8.42002 32.9551 8.46669C33.6934 8.51337 34.416 8.61839 35.1348 8.83621C36.3066 9.19017 37.3262 9.77751 38.2129 10.5982C39.2988 11.6018 40.0371 12.8231 40.4512 14.2429C40.6113 14.7952 40.7168 15.3592 40.7871 15.9271C40.8613 16.495 40.8809 17.0707 40.834 17.6463C40.7637 18.4282 40.6465 19.1944 40.4121 19.9529C39.7754 22.0144 38.5215 23.5742 36.6309 24.6244C35.791 25.0912 34.8809 25.3634 33.9316 25.5229C33.291 25.6318 32.6504 25.624 32.0137 25.5852C31.1504 25.5346 30.3066 25.344 29.5176 24.9939C28.5801 24.5738 27.752 24.0021 27.1309 23.1347ZM31.9668 21.7927C34.5801 21.8277 36.7012 19.8284 36.7168 17.0901C36.7207 15.7871 36.2949 14.6279 35.3691 13.675C34.4434 12.722 33.2988 12.2747 31.9863 12.2786C30.7051 12.2786 29.5723 12.7103 28.6426 13.6088C27.6699 14.5501 27.2246 15.7054 27.2051 17.0473C27.1582 19.7273 29.4473 21.7966 31.9668 21.7927Z" fill="white"/>
<path id="Vector_3" d="M16.7379 10.902C16.7379 10.6842 16.7418 10.4663 16.7379 10.2485C16.734 10.1046 16.8004 10.0229 16.941 9.98012C18.1442 9.62227 19.3434 9.26053 20.5426 8.89879C20.7457 8.83656 20.8668 8.9338 20.8746 9.14773C20.8746 9.17496 20.8746 9.1983 20.8746 9.22552C20.8746 14.0721 20.8746 18.9225 20.8785 23.769C20.8785 23.9635 20.8317 24.0763 20.6246 24.1346C19.4606 24.473 18.3004 24.8231 17.1403 25.1693C16.8278 25.2627 16.7379 25.1965 16.7379 24.8659C16.7379 24.298 16.7379 23.7301 16.7379 23.1661C16.6949 23.1389 16.6793 23.1622 16.6637 23.1817C15.9371 24.2008 14.9254 24.8192 13.7574 25.2238C12.6949 25.5933 11.6012 25.7022 10.4918 25.6166C9.69495 25.5544 8.9176 25.3677 8.17151 25.0643C6.4176 24.3525 5.07385 23.1739 4.14417 21.5325C3.75354 20.8401 3.49182 20.1011 3.2887 19.3348C3.01526 18.3079 2.99182 17.2655 3.0387 16.2192C3.06214 15.6707 3.17542 15.1262 3.31214 14.5894C3.67542 13.193 4.31995 11.9483 5.32385 10.8981C6.44104 9.73507 7.7926 8.98437 9.37464 8.65374C10.066 8.50982 10.7614 8.42814 11.4645 8.46315C12.1129 8.49816 12.7496 8.5954 13.3785 8.76265C14.3317 9.01548 15.191 9.43557 15.9371 10.0813C16.2223 10.3263 16.4684 10.6102 16.6871 10.9175C16.7106 10.9136 16.7262 10.9098 16.7379 10.902ZM7.20276 17.0321C7.17151 17.775 7.35901 18.518 7.71057 19.222C8.1676 20.14 8.85901 20.8323 9.77307 21.3069C10.2574 21.5597 10.777 21.7269 11.3121 21.7775C11.9567 21.8358 12.6051 21.8008 13.2418 21.6025C14.9215 21.0774 16.0231 19.9921 16.4996 18.3079C16.6676 17.7089 16.7028 17.0904 16.6324 16.4564C16.5504 15.7174 16.3239 15.0367 15.9137 14.426C14.9879 13.0569 13.6598 12.3801 12.027 12.2789C11.3668 12.2361 10.7184 12.3606 10.0973 12.6057C8.44885 13.2436 7.15589 14.955 7.20276 17.0321Z" fill="white"/>
<path id="Vector_4" d="M55.6095 10.9213C55.6095 10.6957 55.6095 10.4701 55.6095 10.2445C55.6095 10.1006 55.6759 10.0189 55.8126 9.98004C57.004 9.62997 58.1954 9.27212 59.3868 8.91816C59.6407 8.84425 59.7384 8.91427 59.7384 9.18654C59.7384 14.0603 59.7384 18.9341 59.7423 23.8078C59.7423 23.9945 59.672 24.084 59.4923 24.1385C58.3439 24.4769 57.1993 24.823 56.0509 25.1653C56.0118 25.177 55.9767 25.1887 55.9376 25.1964C55.6993 25.2587 55.6134 25.1964 55.6095 24.9475C55.6056 24.4224 55.6056 23.8973 55.6056 23.3761C55.6056 23.3061 55.6056 23.236 55.6056 23.1738C55.5587 23.1505 55.5431 23.1738 55.5275 23.1933C54.7462 24.2863 53.6486 24.9086 52.3947 25.3054C51.4142 25.6165 50.4064 25.6943 49.3868 25.6282C48.6876 25.5815 48.004 25.422 47.3439 25.1848C45.3321 24.4613 43.84 23.1505 42.8595 21.264C42.422 20.4199 42.1564 19.5175 41.9923 18.5801C41.8478 17.7244 41.8439 16.8648 41.9259 16.0129C42.1134 14.0953 42.8048 12.3722 44.1486 10.9447C45.0509 9.98782 46.1329 9.30712 47.3829 8.89093C47.9181 8.712 48.465 8.59531 49.0275 8.53697C49.4923 8.4864 49.9572 8.43584 50.4181 8.47473C51.0275 8.5253 51.6368 8.61087 52.2345 8.77035C53.2072 9.03096 54.0782 9.45882 54.8322 10.1162C55.1173 10.3573 55.3595 10.6374 55.6095 10.9213ZM50.6681 21.793C53.3673 21.8124 55.5197 19.8209 55.5353 17.0281C55.5509 14.2976 53.4103 12.3177 50.7462 12.2749C48.1681 12.236 46.0665 14.2665 46.0548 16.9776C46.0392 19.6381 48.129 21.8085 50.6681 21.793Z" fill="white"/>
<path id="Vector_5" d="M69.5219 19.2495C69.6235 19.0083 69.7173 18.806 69.7993 18.5999C70.0962 17.8414 70.4126 17.0907 70.7134 16.3361C71.1157 15.3131 71.5571 14.3057 71.979 13.2866C72.3305 12.4386 72.6782 11.5868 73.0219 10.7311C73.2524 10.1515 73.5102 9.58362 73.7173 8.99238C73.7563 8.88347 73.8462 8.80957 73.9868 8.80957C75.2954 8.81346 76.604 8.81346 77.9126 8.80957C78.1196 8.80957 78.1938 8.92237 78.104 9.16353C77.8579 9.80533 77.5727 10.4355 77.3071 11.0734C77.0649 11.649 76.8344 12.2247 76.5844 12.7965C76.1704 13.7495 75.7876 14.718 75.3657 15.671C75.0063 16.4761 74.6938 17.3046 74.3501 18.1176C73.9634 19.0394 73.5532 19.9496 73.1782 20.8753C72.9438 21.4549 72.7016 22.0306 72.4634 22.6101C72.0962 23.4931 71.7251 24.3722 71.354 25.2551C70.9907 26.1186 70.6274 26.9821 70.2641 27.8456C70.186 28.0285 70.1079 28.2113 70.0337 28.398C69.9868 28.5186 69.9048 28.5808 69.7837 28.6197C68.6821 28.9425 67.5805 29.2731 66.4751 29.5999C66.1196 29.7049 65.7602 29.8021 65.4087 29.9227C65.2798 29.9655 65.229 29.8955 65.1587 29.8372C65.0884 29.7749 65.1118 29.7049 65.143 29.6271C65.4634 28.8608 65.7563 28.0829 66.0649 27.3128C66.2446 26.8577 66.4321 26.4026 66.6157 25.9475C66.7993 25.4924 66.9555 25.0256 67.1665 24.5822C67.3071 24.2866 67.2876 24.0376 67.1548 23.7498C66.8032 22.9758 66.479 22.1901 66.1391 21.4121C65.8188 20.6809 65.479 19.9574 65.1782 19.2183C64.9399 18.6232 64.6665 18.0398 64.4204 17.4485C64.1743 16.8534 63.8969 16.2661 63.643 15.6748C63.1899 14.6207 62.7446 13.5666 62.2954 12.5125C61.8969 11.5829 61.4946 10.6572 61.0923 9.72753C61.0102 9.53305 60.9204 9.34246 60.8462 9.14797C60.7641 8.93793 60.8423 8.81735 61.0688 8.81735C62.3891 8.81735 63.7094 8.81735 65.0337 8.81346C65.1821 8.81346 65.2602 8.87958 65.3071 9.00794C65.5415 9.64196 65.8266 10.2526 66.0649 10.8828C66.3071 11.5246 66.6001 12.1469 66.8618 12.7809C67.1977 13.5978 67.5102 14.4263 67.8618 15.2353C68.229 16.0755 68.5571 16.9312 68.9204 17.7714C69.1196 18.2459 69.3071 18.7282 69.5219 19.2495Z" fill="white"/>
<path id="Vector_6" d="M102.843 15.3979C102.683 14.4761 102.378 13.5815 101.921 12.7568C101.507 12.0178 100.984 11.3605 100.355 10.7887C97.9604 8.61823 94.4214 7.97643 91.3471 8.8555C90.0307 9.2328 88.812 9.92905 87.8198 10.8665C86.3003 12.3095 85.5034 14.1066 85.3159 16.1642C85.2456 16.9538 85.2534 17.759 85.4096 18.5525C85.562 19.3304 85.7573 20.0967 86.1206 20.8007C87.6909 23.858 90.2573 25.3866 93.6518 25.6161C94.4135 25.6667 95.1753 25.62 95.9331 25.4644C98.5464 24.9276 100.914 23.2862 102.105 20.8824C102.929 19.2215 103.156 17.2222 102.843 15.3979ZM94.6362 21.8042C92.0737 22.0648 89.7495 20.1861 89.4995 17.6345C89.3237 15.8608 89.855 14.1493 91.3667 13.1341C93.7104 11.5627 96.8276 12.2745 98.1284 14.4489C99.3393 16.4715 98.9448 19.2254 97.1518 20.7501C96.4292 21.3647 95.5425 21.7109 94.6362 21.8042Z" fill="white"/>
</g>
</g>
</svg>
