<svg width="139" height="49" viewBox="0 0 139 49" fill="none" xmlns="http://www.w3.org/2000/svg">
<g id="logo 1">
<g id="Layer 2">
<g id="&#208;&#161;&#208;&#187;&#208;&#190;&#208;&#185; 1">
<path id="Vector" d="M80.9293 12.978V14.0423C79.677 12.9495 78.1464 12.2478 76.5184 12.0201C74.8904 11.7923 73.233 12.048 71.7419 12.7571C70.2508 13.4661 68.9883 14.5987 68.1035 16.0213C67.2187 17.4439 66.7485 19.0969 66.7485 20.7852C66.7485 22.4736 67.2187 24.1266 68.1035 25.5492C68.9883 26.9718 70.2508 28.1044 71.7419 28.8134C73.233 29.5224 74.8904 29.7782 76.5184 29.5504C78.1464 29.3227 79.677 28.621 80.9293 27.5282V29.6313H83.9679V11.938L80.9293 12.978ZM75.3581 26.5052C74.2565 26.5052 73.1796 26.1695 72.2636 25.5406C71.3476 24.9117 70.6337 24.0178 70.2121 22.9719C69.7906 21.9261 69.6803 20.7752 69.8952 19.665C70.1101 18.5547 70.6406 17.5348 71.4196 16.7344C72.1985 15.9339 73.191 15.3888 74.2715 15.1679C75.352 14.9471 76.4719 15.0604 77.4897 15.4937C78.5075 15.9269 79.3774 16.6605 79.9894 17.6017C80.6015 18.543 80.9281 19.6496 80.9281 20.7816C80.9281 22.2996 80.3413 23.7554 79.2967 24.8288C78.2522 25.9022 76.8354 26.5052 75.3581 26.5052Z" fill="white"/>
<path id="Vector_2" d="M118.406 12.9786V14.0417C117.153 12.9487 115.623 12.2468 113.994 12.0189C112.366 11.7911 110.709 12.0468 109.217 12.7559C107.726 13.4649 106.463 14.5978 105.578 16.0206C104.693 17.4433 104.223 19.0967 104.223 20.7853C104.223 22.4738 104.693 24.1272 105.578 25.5499C106.463 26.9727 107.726 28.1056 109.217 28.8147C110.709 29.5237 112.366 29.7794 113.994 29.5516C115.623 29.3237 117.153 28.6218 118.406 27.5288V29.6319H121.445V11.9386L118.406 12.9786ZM112.835 26.5058C111.733 26.5058 110.656 26.1701 109.74 25.5412C108.824 24.9123 108.11 24.0184 107.689 22.9725C107.267 21.9267 107.157 20.7759 107.372 19.6656C107.587 18.5553 108.117 17.5355 108.896 16.735C109.675 15.9345 110.668 15.3894 111.748 15.1686C112.829 14.9477 113.949 15.0611 114.966 15.4943C115.984 15.9275 116.854 16.6611 117.466 17.6023C118.078 18.5436 118.405 19.6502 118.405 20.7822V20.7883C118.403 22.3052 117.816 23.7595 116.771 24.8316C115.727 25.9036 114.311 26.5058 112.835 26.5058Z" fill="white"/>
<path id="Vector_3" d="M128.535 29.6315H125.496V7.77461L128.535 6.7334V29.6315Z" fill="white"/>
<path id="Vector_4" d="M135.624 29.6315H132.585V7.77461L135.624 6.7334V29.6315Z" fill="white"/>
<path id="Vector_5" d="M20.6595 3.61133C16.2277 3.61133 11.9774 5.4204 8.84371 8.64056C5.70998 11.8607 3.94946 16.2282 3.94946 20.7822L3.94946 45.244L11.04 37.9591V20.7822C11.0404 18.8264 11.6053 16.9146 12.6631 15.2887C13.721 13.6628 15.2243 12.3958 16.9829 11.6478C18.7415 10.8999 20.6765 10.7046 22.5431 11.0867C24.4098 11.4688 26.1242 12.4112 27.4696 13.7946C28.8151 15.178 29.7311 16.9403 30.1018 18.8586C30.4725 20.777 30.2813 22.7652 29.5523 24.5719C28.8234 26.3786 27.5894 27.9225 26.0065 29.0085C24.4235 30.0945 22.5628 30.6738 20.6595 30.6731H18.1304L11.04 37.9591H20.6595C25.092 37.9591 29.343 36.1498 32.4773 32.929C35.6116 29.7083 37.3724 25.34 37.3724 20.7852C37.3724 16.2304 35.6116 11.8622 32.4773 8.64145C29.343 5.42072 25.092 3.61133 20.6595 3.61133Z" fill="white"/>
<path id="Vector_6" d="M56.112 11.9391C53.8291 11.9391 51.6398 12.8707 50.0252 14.5291C48.4107 16.1875 47.5031 18.4369 47.5022 20.7827V34.8372L50.542 31.7148V29.6324H56.112C57.2511 29.6461 58.3815 29.4274 59.4377 28.989C60.4939 28.5506 61.455 27.9011 62.2652 27.0783C63.0754 26.2554 63.7187 25.2755 64.1577 24.1954C64.5967 23.1152 64.8228 21.9563 64.8228 20.7857C64.8228 19.6152 64.5967 18.4562 64.1577 17.3761C63.7187 16.2959 63.0754 15.316 62.2652 14.4932C61.455 13.6703 60.4939 13.0209 59.4377 12.5825C58.3815 12.144 57.2511 11.9254 56.112 11.9391ZM56.112 26.51H50.542V20.7827C50.542 19.6507 50.8687 18.5441 51.4807 17.6028C52.0927 16.6616 52.9627 15.928 53.9804 15.4948C54.9982 15.0615 56.1182 14.9482 57.1986 15.169C58.2791 15.3899 59.2716 15.935 60.0506 16.7355C60.8296 17.5359 61.36 18.5558 61.575 19.6661C61.7899 20.7763 61.6796 21.9272 61.258 22.973C60.8364 24.0189 60.1225 24.9128 59.2065 25.5417C58.2905 26.1706 57.2136 26.5063 56.112 26.5063V26.51Z" fill="white"/>
<path id="Vector_7" d="M100.761 11.9385L95.1095 22.5564L89.4577 11.9385H85.9924L93.3674 25.8298L88.5724 34.8366H92.0708L104.225 11.9385H100.761Z" fill="white"/>
</g>
</g>
</g>
</svg>
