<svg width="96" height="58" viewBox="0 0 96 58" fill="none" xmlns="http://www.w3.org/2000/svg">
<g id="Currencycloud-VISA-Logo_Orange-Grey_RGB-1 1">
<g id="Group">
<g id="Group_2">
<path id="Vector" d="M35.7199 28.7382C30.5166 28.7382 26.2972 24.2441 26.2972 18.7021H20.583C20.583 27.6096 27.3568 34.8041 35.701 34.8041L35.7199 28.7382Z" fill="white"/>
<path id="Vector_2" d="M75.4183 18.7021C75.4183 9.7946 68.6445 2.6001 60.3003 2.6001V8.6862C65.5036 8.6862 69.723 13.1803 69.723 18.7222L75.4183 18.7021Z" fill="white"/>
<path id="Vector_3" d="M50.8206 18.7021C50.8206 9.7946 44.0469 2.6001 35.7026 2.6001V8.6862C40.906 8.6862 45.1254 13.1803 45.1254 18.7222C45.1254 27.6297 51.8992 34.8242 60.2434 34.8242V28.7381C55.0401 28.7381 50.8206 24.2441 50.8206 18.7021Z" fill="white"/>
<path id="Vector_4" d="M24.613 44.8597L24.4616 46.9758C23.1371 46.9758 22.21 47.6408 22.21 48.588V52.3767H20.053V45.0008H22.1343L22.1721 45.8875C22.8155 45.1822 23.7048 44.7993 24.613 44.8597Z" fill="white"/>
<path id="Vector_5" d="M29.9125 44.8597L29.7612 46.9758C28.4367 46.9758 27.5096 47.6408 27.5096 48.588V52.3767H25.3525V45.0008H27.4339L27.4717 45.8875C28.1339 45.1822 29.0043 44.7993 29.9125 44.8597Z" fill="white"/>
<path id="Vector_6" d="M91.4248 48.6689C91.3302 47.7419 90.5544 47.0769 89.6841 47.1776C88.8137 47.2784 88.1893 48.1047 88.2839 49.0317C88.3785 49.8781 89.0407 50.523 89.8544 50.523C90.7247 50.523 91.4248 49.7773 91.4248 48.8503C91.4248 48.7899 91.4248 48.7294 91.4248 48.6689ZM93.5818 52.377H91.5005L91.4627 51.4702C90.9707 52.1755 90.176 52.5584 89.3624 52.5181C87.5271 52.5181 86.0323 50.926 86.0512 48.9511C86.0512 48.8705 86.0512 48.7899 86.0512 48.7092C86.0512 46.4118 87.5271 44.8399 89.3624 44.8399C90.1571 44.8198 90.895 45.1825 91.4059 45.8274V41.7969H93.5629L93.5818 52.377Z" fill="white"/>
<path id="Vector_7" d="M32.221 47.9436H34.7564C34.605 47.1173 34.1888 46.6538 33.4698 46.6538C32.7508 46.6538 32.3723 47.1173 32.221 47.9436ZM36.9513 49.4752H32.202C32.2399 50.2007 32.8264 50.7448 33.5076 50.7045C33.5265 50.7045 33.5454 50.7045 33.5644 50.7045C34.0942 50.7246 34.605 50.4626 34.9645 50.0394L36.6485 50.906C35.9484 51.9539 34.7942 52.5585 33.5833 52.5182C31.4074 52.5182 29.9315 51.0269 29.9315 48.7698C29.7801 46.7747 31.1614 45.0416 33.0346 44.8803C33.1859 44.8602 33.3373 44.8602 33.4698 44.8803C35.3051 44.7393 36.8945 46.2104 37.0269 48.1652C37.0459 48.3063 37.0459 48.4474 37.0269 48.5884C37.0269 48.8907 37.008 49.193 36.9702 49.5155" fill="white"/>
<path id="Vector_8" d="M63.7801 46.8153C62.8151 46.8959 62.115 47.8028 62.1907 48.8306C62.2664 49.7374 62.9286 50.4428 63.7801 50.5234C64.3099 50.5637 64.8207 50.342 65.1802 49.9188L66.4101 51.4504C65.6722 52.1759 64.6883 52.5387 63.7044 52.4983C61.4339 52.4983 59.9202 50.9667 59.9202 48.6693C59.9202 46.3719 61.4528 44.8403 63.7422 44.8403C64.6126 44.8403 65.483 45.1426 66.1641 45.727L64.9343 47.2788C64.6505 46.9765 64.2153 46.7951 63.7801 46.8153Z" fill="white"/>
<path id="Vector_9" d="M49.2684 46.8153C48.3034 46.8959 47.6033 47.8028 47.679 48.8306C47.7547 49.7374 48.4169 50.4428 49.2684 50.5234C49.7982 50.5637 50.309 50.342 50.6685 49.9188L51.8984 51.4504C51.1605 52.1759 50.1766 52.5387 49.1927 52.4983C46.9221 52.4983 45.4084 50.9667 45.4084 48.6693C45.4084 46.3719 46.9411 44.8403 49.2305 44.8403C50.1009 44.8403 50.9713 45.1426 51.6524 45.727L50.4226 47.2788C50.1009 46.9765 49.7035 46.7951 49.2684 46.8153Z" fill="white"/>
<path id="Vector_10" d="M69.4209 41.7969H67.2639V52.377H69.4209V41.7969Z" fill="white"/>
<path id="Vector_11" d="M59.145 51.5912C59.145 53.9289 57.5745 55.4806 55.1715 55.4806C54.1876 55.5209 53.2227 55.1985 52.428 54.5738L52.901 52.76C53.5443 53.2638 54.3201 53.5057 55.1337 53.4855C56.0798 53.5661 56.9123 52.8003 56.988 51.7927C56.988 51.7322 56.988 51.6718 56.988 51.6113C56.496 52.1756 55.7959 52.4779 55.0769 52.4577C53.6957 52.498 52.5415 51.3493 52.5037 49.8782C52.5037 49.7774 52.5037 49.6767 52.5037 49.5759V44.9609H54.6607V49.2333C54.6039 49.9185 55.0959 50.5231 55.7392 50.5634C56.3825 50.6238 56.9501 50.0999 56.988 49.4147C56.988 49.3542 56.988 49.2938 56.988 49.2333V44.9609H59.145V51.5912Z" fill="white"/>
<path id="Vector_12" d="M75.5874 48.6693C75.4927 47.7625 74.717 47.0974 73.8466 47.1982C72.9952 47.299 72.3708 48.1252 72.4654 49.0522C72.56 49.8987 73.2222 50.5435 74.0169 50.5234C74.8873 50.5234 75.5874 49.7777 75.5874 48.8507C75.5874 48.7903 75.5874 48.7298 75.5874 48.6693ZM70.2327 48.6693C70.2327 46.3719 71.7653 44.8403 74.0547 44.8403C76.3442 44.8403 77.839 46.3719 77.839 48.6693C77.839 50.9667 76.3064 52.4983 74.0547 52.4983C71.8031 52.4983 70.2327 50.9667 70.2327 48.6693Z" fill="white"/>
<path id="Vector_13" d="M85.2367 44.981V49.6765C85.2367 51.3694 83.8743 52.4979 81.9065 52.4979C79.9198 52.4979 78.5764 51.2081 78.5764 49.2533V44.981H80.7334V49.2533C80.6767 49.9385 81.1686 50.5431 81.8119 50.6036C82.4553 50.664 83.0229 50.14 83.0797 49.4548C83.0797 49.3944 83.0797 49.3339 83.0797 49.2735V45.0011L85.2367 44.981Z" fill="white"/>
<path id="Vector_14" d="M19.1832 44.981V49.6765C19.1832 51.3694 17.8209 52.4979 15.8531 52.4979C13.8853 52.4979 12.5229 51.2081 12.5229 49.2533V44.981H14.68V49.2533C14.6232 49.9385 15.1151 50.5431 15.7585 50.6036C16.4018 50.664 16.9694 50.14 17.0262 49.4548C17.0262 49.3944 17.0262 49.3339 17.0262 49.2735V45.0011L19.1832 44.981Z" fill="white"/>
<path id="Vector_15" d="M44.6533 47.7421V52.3772H42.4963V48.1049C42.4206 47.3391 41.7773 46.7748 41.0394 46.8554C40.415 46.9159 39.923 47.4398 39.8662 48.1049V52.3772H37.7092V44.9812H39.7906V45.8075C40.3393 45.1827 41.115 44.82 41.9286 44.8401C43.3288 44.7394 44.5587 45.8881 44.6344 47.3794C44.6344 47.5003 44.6344 47.6011 44.6344 47.722" fill="white"/>
<path id="Vector_16" d="M10.2343 48.7092C9.64775 49.6161 8.68277 50.1602 7.64211 50.1602C5.99597 50.1602 4.67149 48.7495 4.67149 46.9963C4.67149 45.243 5.99597 43.8323 7.64211 43.8323C8.70169 43.8323 9.70451 44.3966 10.2721 45.3437L11.8615 43.8323C10.8587 42.4216 9.28825 41.6155 7.62319 41.6155C4.84178 41.5147 2.51447 43.8121 2.40095 46.7746C2.30634 49.737 4.46335 52.2158 7.24476 52.3367C7.37721 52.3367 7.49074 52.3367 7.62319 52.3367C9.26933 52.3569 10.8209 51.5508 11.8426 50.1602L10.2343 48.7092Z" fill="white"/>
</g>
</g>
</g>
</svg>
