<svg width="24" height="24" viewBox="0 0 24 24" fill="none" xmlns="http://www.w3.org/2000/svg">
<g id="Frame">
<path id="Vector" d="M20.25 4.5H3.75C3.45163 4.5 3.16548 4.61853 2.9545 4.8295C2.74353 5.04048 2.625 5.32663 2.625 5.625C2.625 5.92337 2.74353 6.20952 2.9545 6.4205C3.16548 6.63147 3.45163 6.75 3.75 6.75H4.125V19.5C4.125 19.9973 4.32254 20.4742 4.67417 20.8258C5.02581 21.1775 5.50272 21.375 6 21.375H18C18.4973 21.375 18.9742 21.1775 19.3258 20.8258C19.6775 20.4742 19.875 19.9973 19.875 19.5V6.75H20.25C20.5484 6.75 20.8345 6.63147 21.0455 6.4205C21.2565 6.20952 21.375 5.92337 21.375 5.625C21.375 5.32663 21.2565 5.04048 21.0455 4.8295C20.8345 4.61853 20.5484 4.5 20.25 4.5ZM17.625 19.125H6.375V6.75H17.625V19.125ZM7.125 1.875C7.125 1.57663 7.24353 1.29048 7.4545 1.0795C7.66548 0.868526 7.95163 0.75 8.25 0.75H15.75C16.0484 0.75 16.3345 0.868526 16.5455 1.0795C16.7565 1.29048 16.875 1.57663 16.875 1.875C16.875 2.17337 16.7565 2.45952 16.5455 2.6705C16.3345 2.88147 16.0484 3 15.75 3H8.25C7.95163 3 7.66548 2.88147 7.4545 2.6705C7.24353 2.45952 7.125 2.17337 7.125 1.875Z" fill="white"/>
</g>
</svg>
